<svg width="921" height="272" viewBox="0 0 921 272" fill="none" xmlns="http://www.w3.org/2000/svg">
<path d="M949.159 -10.1496C949.159 -10.1496 931.6 -7.85975 927.56 -5.08864C923.168 -2.07619 923.805 8.80098 923.805 8.80098L920.386 10.4058C920.386 10.4058 922.032 0.83326 923.042 -2.88264C923.983 -6.3455 924.923 -9.8085 925.864 -13.2714C926.095 -14.1213 926.326 -14.9711 926.557 -15.821C926.725 -16.1596 926.896 -16.4972 927.075 -16.8326C928.114 -18.7806 928.726 -20.9329 929.369 -23.0699C929.317 -24.0012 929.349 -24.9445 929.492 -25.8434C929.606 -26.5667 929.828 -27.4162 930.362 -27.9243C930.671 -27.9189 930.995 -27.8148 931.246 -27.683C932.001 -27.2869 932.463 -26.4618 932.936 -25.7912C933.499 -24.9942 934.144 -24.2756 934.988 -23.7606C935.692 -23.3313 936.733 -22.7354 937.506 -23.301C938.258 -23.8507 938.899 -24.7272 939.483 -25.4388C940.134 -26.2329 940.739 -27.0639 941.294 -27.9264C941.797 -28.7064 942.257 -29.5114 942.679 -30.3361C943.95 -32.2358 945.554 -33.8085 947.918 -34.3122C950.509 -34.8641 953.188 -34.0811 955.785 -34.5467C958.391 -35.0139 960.774 -37.4967 961.263 -40.041C961.472 -41.1276 961.366 -42.3113 961.133 -43.39C961.074 -43.6618 960.998 -43.9913 960.887 -44.3177C959.843 -45.1852 958.612 -45.8004 957.186 -46.0137C956.247 -46.1542 955.309 -46.1369 954.383 -46.0082C953.723 -45.6737 953.049 -45.3896 952.347 -45.2037C951.425 -44.9593 950.502 -44.7205 949.577 -44.4851C949.572 -44.483 949.568 -44.481 949.564 -44.479C949.497 -44.4483 949.433 -44.4344 949.373 -44.4338C943.579 -42.9626 937.739 -41.6504 931.904 -40.3343C929.977 -39.8996 928.178 -39.2208 926.436 -38.385C926.267 -38.3784 926.099 -38.2994 925.971 -38.1188C924.855 -36.9938 924.869 -35.4522 925.411 -33.9286C925.48 -33.6978 925.561 -33.4692 925.656 -33.2445C926.083 -32.2341 926.73 -31.3821 927.51 -30.6557C927.933 -24.818 926.495 -18.9368 923.438 -13.9684C923.287 -14.1435 923.146 -14.3057 923.014 -14.458C922.534 -15.5607 921.511 -16.4076 920.288 -16.642C920.185 -16.6617 920.139 -16.5357 920.189 -16.4633C921.079 -15.1814 921.606 -13.7814 921.886 -12.324C921.844 -11.0959 921.704 -9.87212 921.512 -8.66024C921.232 -6.90214 920.856 -5.16103 920.5 -3.41779L919.378 2.07704C918.972 4.06788 918.565 6.05881 918.159 8.04964C918.105 8.2681 918.051 8.48633 917.997 8.70489C917.805 9.35213 917.587 9.99114 917.329 10.6174C916.826 11.8388 916.164 12.9897 915.296 13.9897C915.244 12.8286 914.625 11.7096 913.638 11.0514C913.551 10.9939 913.453 11.0599 913.46 11.1565C913.656 14.1021 912.753 17.078 910.999 19.4405C910.997 19.4429 910.995 19.4453 910.992 19.4477C909.459 20.8271 907.874 22.1707 906.414 23.5981C906.298 23.7111 906.18 23.822 906.061 23.9322C905.932 24.0248 905.803 24.1176 905.675 24.2116C904.857 24.8121 904.081 25.455 903.343 26.1421C902.957 26.0889 902.625 25.8581 902.431 25.3321C902.252 24.8462 902.243 24.3112 902.207 23.803C902.177 23.3948 902.136 22.9874 902.085 22.581C903.816 19.4147 905.612 16.1394 906.469 12.6375C906.843 11.1071 906.957 9.47603 906.393 7.96346C906.07 7.09808 905.524 6.3236 905.031 5.54575C904.776 5.14373 904.521 4.74182 904.266 4.33983C901.869 -0.31247 895.978 -6.39676 895.23 -7.16037C895.162 -7.23694 895.096 -7.315 895.028 -7.39056C895.003 -7.4174 894.97 -7.42985 894.938 -7.42938C894.939 -7.43421 894.939 -7.43915 894.94 -7.44397C894.94 -7.44397 894.936 -7.43837 894.929 -7.42933C894.892 -7.4258 894.858 -7.40437 894.842 -7.36434C894.828 -7.32924 894.813 -7.29413 894.799 -7.25903C893.952 -6.12215 889.554 0.133363 889.554 7.56209C889.555 15.7831 899.178 19.5843 900.578 22.1711C900.579 22.1689 900.581 22.1667 900.582 22.1645C900.707 22.8006 900.789 23.4444 900.826 24.0902C900.937 26.002 900.66 27.9335 900.022 29.7324C900.021 29.7334 900.021 29.7344 900.02 29.7354C898.611 31.4116 897.267 33.1488 895.89 34.8421C894.77 36.2196 893.613 37.5797 892.486 38.9617C892.08 39.5843 891.68 40.2113 891.29 40.8442C889.233 44.181 886.454 47.2342 885.1 50.9079C884.644 52.1454 884.203 53.3895 883.751 54.629C883.433 55.9675 883.046 57.2899 882.612 58.5944C881.18 62.8922 880.395 67.4469 878.4 71.5087C876.953 74.4527 875.334 77.5612 872.953 79.904C874.075 80.5653 875.071 81.411 875.895 82.4126C876.417 81.9747 876.882 81.4689 877.301 80.9221C878.801 78.3263 880.1 75.6256 881.26 72.8643C882.156 70.4432 882.919 67.9654 883.668 65.514C884.154 63.9222 886.145 57.0943 886.952 55.5848C888.024 53.5783 889.553 51.7408 891.565 50.6898C891.679 50.6091 891.794 50.5306 891.913 50.4563C893.042 49.7532 894.331 49.3424 895.594 48.937C895.725 48.8951 895.647 48.7206 895.53 48.7252C894.384 48.7705 893.239 48.8157 892.093 48.861C891.674 48.8776 890.704 49.0722 890.488 48.5629C890.397 48.3505 890.476 48.0928 890.528 47.883C890.595 47.611 890.666 47.3401 890.741 47.0702C890.839 46.7162 890.946 46.3647 891.057 46.0145C891.305 45.4109 891.586 44.825 891.932 44.2736C894.176 40.6972 896.587 37.1973 899.207 33.8373C901.342 31.0995 903.748 28.5131 906.268 26.0339C910.352 22.0157 915.14 18.5049 918.22 13.771C918.64 13.3023 919.039 12.8162 919.419 12.3155C921.175 11.162 923.041 10.1716 925.136 9.74644C925.207 9.7322 925.277 9.7205 925.348 9.70722C930.075 10.1437 937.243 11.1094 941.913 6.06175C947.273 0.266939 949.159 -10.1496 949.159 -10.1496ZM927.749 -30.4411C927.787 -30.4078 927.825 -30.3742 927.864 -30.3414C927.841 -29.888 927.822 -29.4332 927.804 -28.9785C927.798 -29.466 927.78 -29.9536 927.749 -30.4411ZM927.562 -24.9528C927.477 -24.1544 927.357 -23.3659 927.181 -22.5935C927.077 -22.1356 926.953 -21.6832 926.815 -21.2335C927.146 -22.4543 927.396 -23.6972 927.562 -24.9528ZM898.488 13.1152C897.187 10.6167 894.847 -4.93532 894.983 -4.96968C895.123 -5.00501 896.216 0.831306 897.091 4.34763C897.275 5.08347 897.5 5.85388 897.753 6.63735C897.814 7.02092 897.881 7.40317 897.954 7.78362C898.506 10.6415 899.382 13.4274 900.075 16.2541C899.604 15.2151 899.031 14.1593 898.488 13.1152ZM930.162 3.79863C928.473 4.40462 925.977 5.89545 925.164 7.70862C925.313 6.72316 926.032 5.89958 926.744 5.26858C927.448 4.64507 928.248 4.13811 929.098 3.72719C931.931 2.35806 934.738 0.399355 937.467 -1.38939C940.681 -3.49711 946.473 -7.61402 946.535 -7.48284C941.29 -1.77151 933.065 2.7573 930.162 3.79863Z" fill="#D1D1D1"/>
<path d="M821.917 256.78C818.696 256.523 815.537 255.525 812.747 253.894C812.057 253.491 811.389 253.049 810.749 252.571C810.103 252.089 809.493 251.563 808.878 251.044C807.688 250.039 806.432 249.016 804.918 248.542C804.081 248.281 803.213 248.242 802.345 248.234C801.472 248.226 800.587 248.236 799.735 248.011C799.658 247.991 799.599 248.036 799.587 248.11C799.325 249.698 799.937 251.387 801.107 252.515C801.75 253.134 802.537 253.53 803.389 253.786C804.346 254.074 805.341 254.205 806.305 254.465C807.247 254.719 808.125 255.118 808.799 255.835C809.427 256.503 809.871 257.311 810.463 258.006C811.06 258.709 811.822 259.222 812.707 259.501C813.588 259.779 814.53 259.832 815.44 259.722C817.389 259.486 819.12 258.464 820.725 257.425C820.927 257.295 821.128 257.163 821.328 257.032C821.36 257.011 821.376 256.982 821.38 256.951C821.555 256.97 821.731 256.988 821.907 257.002C822.051 257.013 822.062 256.792 821.917 256.78Z" fill="#D1D1D1"/>
<path d="M819.924 231.072C818.737 231.618 817.936 231.987 817.136 232.355C817.15 232.564 817.165 232.773 817.18 232.983C817.987 232.86 818.822 232.817 819.582 232.561C819.791 232.491 819.774 231.785 819.924 231.072Z" fill="#D1D1D1"/>
<path d="M822.831 226.202C822.83 226.204 822.828 226.206 822.826 226.208C819.481 226.462 816.675 227.366 814.133 229.035C812.743 229.948 812.106 232.019 812.632 233.832C813.042 233.483 813.428 233.06 813.82 232.663C814.968 232.153 816.301 232.027 817.458 231.543C818.982 230.906 820.219 229.779 821.279 228.554C821.728 228.036 822.149 227.495 822.559 226.947C822.801 226.697 823.041 226.441 823.281 226.176C823.189 226.181 823.099 226.189 823.008 226.195C822.963 226.15 822.88 226.135 822.831 226.202Z" fill="#D1D1D1"/>
<path d="M814.802 233.854C814.391 234.177 814.083 234.49 813.872 234.791C813.626 234.97 813.403 235.175 813.23 235.424C812.909 235.885 812.843 236.452 813.033 236.981C813.228 237.524 813.643 237.953 814.163 238.211C814.749 238.501 815.406 238.567 816.049 238.521C816.389 238.496 816.727 238.449 817.069 238.443C817.42 238.437 817.755 238.49 818.091 238.596C818.439 238.705 818.776 238.846 819.131 238.933C819.451 239.011 819.779 239.038 820.108 239.022C820.715 238.994 821.326 238.864 821.9 238.672C822.425 238.496 822.934 238.254 823.361 237.902C823.841 237.508 824.19 236.975 824.301 236.362C824.413 235.743 824.285 235.086 823.94 234.551C823.863 234.431 823.661 234.529 823.739 234.65C823.855 234.829 823.942 235.019 824.004 235.213C823.93 235.007 823.815 234.785 823.647 234.543C822.479 236.314 820.927 236.932 818.949 236.868C816.829 236.8 815.514 235.766 814.802 233.854Z" fill="#D1D1D1"/>
<path d="M812.201 225.204C812.227 222.682 811.031 220.612 809.978 218.474C809.421 217.344 808.266 217.231 807.421 218.134C804.998 220.723 804.48 223.939 804.906 227.229C805.154 229.136 805.772 231.295 806.979 232.724C808.684 234.742 809.685 236.51 809.149 239.228C808.471 242.669 809.763 243.686 813.115 242.654C815.601 241.89 818.093 241.608 820.684 241.955C821.58 242.075 822.495 242.095 823.4 242.09C829.344 242.062 832.632 235.535 830.458 231.346C829.932 230.333 829.693 229.178 829.322 228.088C829.204 228.029 829.086 227.971 828.968 227.912C828.745 229.201 828.426 230.481 828.318 231.781C827.992 235.716 824.111 239.813 820.335 240.209C817.973 240.456 815.891 239.677 813.967 238.501C812.986 237.9 811.858 237.054 811.48 236.069C810.697 234.032 810.551 231.785 811.587 229.768C812.357 228.268 812.185 226.773 812.201 225.204Z" fill="#D1D1D1"/>
<path d="M808.859 209.823C808.275 209.991 807.424 210.54 807.377 210.989C807.204 212.629 807.32 214.301 807.327 215.96C807.51 215.987 807.693 216.013 807.876 216.04C808.805 215.121 809.706 214.173 810.671 213.293C811.366 212.659 812.062 211.939 812.901 211.563C816.912 209.766 821.009 208.972 825.463 210.303C827.989 211.058 830.685 211.55 833.308 211.591C836.051 211.634 838.426 212.179 840.648 213.784C841.594 214.468 842.781 214.826 843.888 215.345C844.007 214.984 844.084 214.879 844.064 214.797C842.783 209.63 839.754 205.547 835.717 202.15C835.294 201.795 834.23 201.914 833.58 202.136C830.482 203.198 827.473 204.521 824.342 205.471C819.215 207.025 814.011 208.341 808.859 209.823Z" fill="#D1D1D1"/>
<path d="M803.482 246.879C806.136 247.471 808.066 248.991 809.937 250.792C811.031 251.846 812.25 252.987 813.632 253.499C817.688 255.003 821.859 254.959 825.753 253.11C827.402 252.327 828.781 250.931 830.148 249.671C831.371 248.544 832.28 247.072 833.552 246.014C836.585 243.488 836.714 238.182 833.336 235.047C832.968 236.62 832.276 238.014 832.407 239.337C832.718 242.489 831.804 244.588 828.97 246.088C828.372 246.404 827.803 246.814 827.309 247.272C824.907 249.498 821.75 249.657 819.068 247.668C818.692 247.389 818.233 246.954 817.852 246.988C815.751 247.174 814.554 246.069 813.755 244.327C813.43 244.383 813.171 244.424 812.913 244.471C808.968 245.184 807.259 243.664 807.54 239.686C807.57 239.267 807.563 238.822 807.707 238.44C808.35 236.74 807.565 235.595 806.399 234.384C805.477 233.425 804.719 232.218 804.201 230.995C803.065 228.315 802.819 225.527 803.325 222.661C803.426 222.332 803.54 222.007 803.669 221.687C804.343 220.008 805.691 218.649 806.235 216.922C806.491 216.11 806.481 215.293 806.271 214.469C806.105 213.818 805.655 212.896 805.993 212.244C806.207 211.83 806.028 211.209 805.461 211.206C802.819 211.195 800.221 212.127 798.262 213.865C796.133 215.753 794.868 218.545 794.826 221.38C794.784 224.137 796.149 226.672 796.239 229.402C796.334 232.291 794.222 234.862 794.956 237.796C795.301 239.177 796.201 240.098 797.498 240.669C797.976 240.879 798.567 241.033 799.112 241.253C799.532 241.85 799.835 242.587 799.95 243.239C800.318 245.342 801.642 246.468 803.482 246.879Z" fill="#D1D1D1"/>
<path d="M835.887 225.092C833.9 225.414 832.049 225.714 829.959 226.053C830.703 228.622 831.401 231.029 832.178 233.712C834.041 231.021 835.786 228.498 835.887 225.092Z" fill="#D1D1D1"/>
<path d="M825.778 225.702C825.044 226.184 824.377 226.484 823.901 226.967C823.094 227.784 822.512 228.834 821.646 229.57C820.516 230.531 821.039 231.112 821.886 231.791C823.054 232.729 824.203 233.69 825.466 234.727C827.464 232.181 827.084 229.242 825.778 225.702Z" fill="#D1D1D1"/>
<path d="M815.969 233.452C816.425 235.065 817.469 235.571 818.887 235.632C820.432 235.698 821.831 235.529 822.73 233.857C822.086 233.482 821.508 233.145 820.758 232.707C819.43 234.556 817.741 234.101 815.969 233.452Z" fill="#D1D1D1"/>
<path d="M816.964 245.466C817.942 245.917 819.051 246.151 819.932 246.734C821.867 248.012 824.068 247.986 825.94 246.544C826.929 245.782 827.982 245.091 829.055 244.445C830.638 243.492 831.265 242.081 831.396 240.209C826.194 244.059 826.139 244.051 819.282 243.582C817.936 243.489 816.575 243.653 815.221 243.698C815.149 243.922 815.077 244.146 815.005 244.369C815.657 244.738 816.287 245.153 816.964 245.466Z" fill="#D1D1D1"/>
<path d="M847.291 205.601C847.367 203.253 845.171 201.566 842.865 202.12C841.636 202.415 840.449 202.876 839.132 203.298C839.432 203.713 839.667 204.052 839.916 204.381C842.24 207.45 844.284 210.671 845.191 214.435C845.412 215.349 845.797 215.879 846.636 216.303C849.563 217.783 851.448 219.981 851.982 223.334C852.507 226.63 853.429 229.866 854.063 233.148C854.323 234.495 855.046 235.239 856.324 235.436C857.952 235.687 859.598 235.816 861.458 236.023C857.35 228.211 865.702 223.913 865.964 218.573C866.02 217.437 865.931 216.244 865.641 215.144C864.313 210.123 854.626 208.628 849.376 207.959C847.88 207.768 847.241 207.156 847.291 205.601Z" fill="#D1D1D1"/>
<path d="M840.828 221.671C838.925 220.257 837.212 219.092 835.626 217.778C833.882 216.332 831.92 215.601 829.712 215.868C823.773 216.588 817.847 217.412 812.308 218.144C812.778 221.416 813.207 224.399 813.642 227.422C813.709 227.396 813.909 227.353 814.074 227.254C817.899 224.987 822.114 224.315 826.509 224.525C830.409 224.711 834.141 223.949 837.826 222.888C838.769 222.616 839.654 222.153 840.828 221.671Z" fill="#D1D1D1"/>
<path d="M855.674 238.338C854.452 236.928 853.786 235.167 853.245 233.42C852.985 232.582 852.749 231.737 852.488 230.9C852.474 230.815 852.461 230.73 852.447 230.646C852.435 230.648 852.422 230.649 852.41 230.651C852.405 230.638 852.401 230.624 852.397 230.61C852.397 230.59 852.392 230.569 852.377 230.549C852.359 230.493 852.343 230.437 852.325 230.382C852.299 230.304 852.215 230.286 852.157 230.31C850.864 228.922 849.419 227.675 847.853 226.595C847.746 226.477 847.638 226.356 847.528 226.231C847.535 226.283 847.543 226.335 847.55 226.387C847.506 226.358 847.464 226.328 847.421 226.299C847.3 226.219 847.176 226.403 847.296 226.483C847.395 226.548 847.492 226.617 847.59 226.683C848.115 230.554 848.805 233.954 848.908 237.364C849.013 240.792 848.404 244.2 846.592 247.573C846.545 247.588 846.525 247.638 846.531 247.687C846.468 247.803 846.403 247.919 846.337 248.035C846.505 247.962 846.67 247.89 846.835 247.818C847.837 247.924 848.832 247.695 849.773 247.376C850.76 247.043 851.729 246.646 852.69 246.248C854.567 245.471 856.432 244.58 858.014 243.303C858.886 242.598 859.657 241.773 860.258 240.829C860.301 240.762 860.258 240.656 860.169 240.656C858.389 240.654 856.805 239.643 855.674 238.338Z" fill="#D1D1D1"/>
<path d="M851.946 229.07C851.683 228.682 851.556 227.993 851.36 227.322C851.019 226.157 850.468 225.026 850.301 223.843C849.759 219.991 847.351 217.97 843.8 216.795C842.101 216.233 840.557 215.219 838.884 214.557C837.476 213.999 835.962 213.24 834.533 213.297C831.206 213.432 828.049 212.755 824.901 211.925C818.87 210.335 813.773 211.735 809.532 216.11C809.571 216.301 809.61 216.492 809.649 216.683C811.692 216.536 813.75 216.497 815.773 216.22C819.358 215.728 822.904 214.945 826.499 214.557C830.069 214.172 833.58 214.212 836.672 216.752C839.867 219.377 843.354 221.652 846.607 224.212C848.494 225.698 850.173 227.442 851.946 229.07Z" fill="#D1D1D1"/>
<path d="M846.201 226.516C846.067 225.84 845.445 225.198 844.922 224.66C843.275 222.964 841.45 222.751 839.413 224.008C838.711 224.441 837.837 224.604 836.953 224.922C837.18 228.025 836.149 230.786 834.664 233.438C834.478 233.77 834.61 234.371 834.771 234.783C835.545 236.774 836.566 238.694 837.147 240.734C837.922 243.455 836.88 245.642 834.593 247.323C833.672 248 832.707 248.797 832.166 249.762C831.992 250.073 831.808 250.373 831.616 250.663C829.964 252.115 828.233 253.489 826.371 254.673C825.299 255.354 824.186 255.971 823.03 256.506C822.977 256.53 822.952 256.602 822.981 256.654C823.835 258.211 825.259 259.431 826.918 260.094C828.549 260.746 830.361 260.802 832.019 260.259C833.623 259.734 835.047 258.698 835.971 257.301C836.531 256.454 836.915 255.509 837.446 254.645C837.711 254.215 838.013 253.808 838.38 253.458C838.731 253.122 839.128 252.835 839.534 252.567C840.355 252.026 841.207 251.54 841.933 250.873C842.614 250.247 843.192 249.511 843.639 248.705C844.965 247.019 846.004 245.258 846.599 243.212C848.222 237.627 847.303 232.061 846.201 226.516Z" fill="#D1D1D1"/>
<path d="M840.954 195.759C835.947 197.042 836.08 200.384 836.08 200.384C837.268 202.101 838.518 202.424 840.067 201.537C840.43 201.329 840.856 201.231 841.243 201.06C842.403 200.549 843.435 200.329 844.389 200.421C844.573 200.444 844.751 200.472 844.923 200.507C845.986 200.75 846.96 201.409 847.92 202.521C848.074 202.7 848.222 202.837 848.371 202.939C848.908 203.718 849.148 204.376 849.148 204.376C849.148 204.376 853.5 204.115 855.885 199.789C858.27 195.462 856.493 191.304 856.493 191.304C856.493 191.304 855.605 193.026 851.834 195.341C848.064 197.656 845.961 194.475 840.954 195.759Z" fill="#D1D1D1"/>
<path d="M784.889 214.947C784.884 217.944 786.725 220.572 786.891 223.534C786.993 225.334 785.979 226.755 785.292 228.335C784.617 229.887 784.504 231.562 785.511 233.018C786.477 234.413 788.172 235.206 789.863 235.096C791.536 234.988 793.089 234.033 794.053 232.707C795.65 229.735 793.623 226.491 792.913 223.705C792.191 220.871 792.882 217.81 794.587 215.467C795.551 214.143 796.814 213.053 798.314 212.354C798.732 212.159 798.838 211.726 798.602 211.342C796.874 208.523 793.199 207.117 790.028 208.072C787.06 208.966 784.894 211.891 784.889 214.947Z" fill="#D1D1D1"/>
<path d="M808.006 174.106C808.006 174.106 825.42 170.899 829.31 167.92C833.538 164.682 832.331 153.853 832.331 153.853L835.661 152.071C835.661 152.071 834.52 161.717 833.706 165.48C832.948 168.988 832.19 172.495 831.432 176.003C831.246 176.864 831.06 177.724 830.874 178.585C830.724 178.932 830.571 179.278 830.41 179.623C829.474 181.622 828.976 183.804 828.446 185.971C828.547 186.899 828.564 187.842 828.469 188.748C828.392 189.476 828.215 190.336 827.709 190.871C827.4 190.882 827.071 190.795 826.813 190.677C826.038 190.321 825.534 189.521 825.026 188.876C824.422 188.11 823.741 187.426 822.871 186.956C822.145 186.564 821.074 186.023 820.332 186.629C819.61 187.217 819.016 188.126 818.47 188.867C817.862 189.694 817.301 190.556 816.791 191.446C816.331 192.252 815.913 193.08 815.535 193.925C814.365 195.889 812.846 197.544 810.511 198.171C807.953 198.858 805.236 198.216 802.667 198.817C800.09 199.42 797.84 202.025 797.485 204.591C797.333 205.687 797.502 206.864 797.791 207.929C797.863 208.197 797.957 208.522 798.085 208.842C799.173 209.654 800.434 210.204 801.87 210.342C802.815 210.433 803.751 210.366 804.668 210.189C805.31 209.821 805.968 209.502 806.659 209.279C807.567 208.987 808.477 208.7 809.388 208.416C809.392 208.414 809.397 208.412 809.401 208.41C809.466 208.376 809.529 208.358 809.589 208.355C815.298 206.582 821.061 204.965 826.819 203.345C828.721 202.81 830.481 202.038 832.177 201.112C832.346 201.096 832.509 201.009 832.628 200.822C833.684 199.64 833.589 198.101 832.967 196.608C832.887 196.381 832.793 196.157 832.687 195.938C832.207 194.951 831.517 194.134 830.7 193.449C829.971 187.642 831.099 181.693 833.891 176.572C834.052 176.739 834.201 176.893 834.341 177.038C834.878 178.114 835.943 178.906 837.178 179.076C837.281 179.091 837.321 178.962 837.267 178.893C836.31 177.659 835.711 176.289 835.355 174.848C835.332 173.62 835.408 172.39 835.537 171.17C835.724 169.399 836.009 167.641 836.273 165.882L837.105 160.335C837.406 158.326 837.708 156.317 838.009 154.307C838.051 154.086 838.094 153.865 838.136 153.644C838.294 152.988 838.479 152.338 838.703 151.699C839.141 150.453 839.742 149.269 840.556 148.225C840.67 149.382 841.347 150.467 842.367 151.072C842.456 151.125 842.55 151.054 842.539 150.958C842.188 148.027 842.935 145.008 844.562 142.557C844.564 142.554 844.566 142.552 844.568 142.549C846.027 141.091 847.54 139.666 848.923 138.164C849.033 138.046 849.145 137.929 849.258 137.812C849.382 137.713 849.506 137.614 849.629 137.513C850.414 136.87 851.156 136.188 851.856 135.463C852.245 135.496 852.589 135.709 852.81 136.224C853.014 136.7 853.051 137.234 853.114 137.739C853.165 138.145 853.227 138.55 853.299 138.953C851.737 142.206 850.115 145.571 849.443 149.113C849.149 150.661 849.121 152.296 849.763 153.776C850.131 154.624 850.717 155.369 851.25 156.119C851.526 156.508 851.802 156.896 852.077 157.284C854.715 161.804 860.917 167.571 861.704 168.294C861.776 168.367 861.845 168.442 861.918 168.514C861.944 168.539 861.978 168.55 862.01 168.548C862.009 168.553 862.009 168.558 862.008 168.562C862.008 168.562 862.012 168.557 862.019 168.547C862.055 168.542 862.088 168.519 862.102 168.478C862.114 168.442 862.127 168.406 862.139 168.37C862.926 167.191 866.99 160.713 866.6 153.295C866.168 145.085 856.359 141.793 854.825 139.284C854.824 139.286 854.823 139.288 854.822 139.29C854.664 138.662 854.549 138.023 854.477 137.38C854.267 135.477 854.442 133.533 854.985 131.704C854.985 131.703 854.986 131.701 854.986 131.7C856.306 129.953 857.556 128.147 858.843 126.384C859.889 124.95 860.973 123.531 862.026 122.092C862.399 121.449 862.766 120.802 863.122 120.149C865.001 116.709 867.617 113.515 868.777 109.775C869.167 108.515 869.542 107.25 869.929 105.988C870.176 104.635 870.493 103.294 870.858 101.969C872.062 97.6016 872.607 93.0121 874.387 88.8513C875.677 85.8356 877.132 82.6463 879.387 80.1821C878.231 79.5805 877.193 78.7881 876.317 77.8311C875.819 78.2957 875.381 78.8253 874.991 79.3932C873.63 82.064 872.474 84.8292 871.46 87.6475C870.693 90.1122 870.06 92.6266 869.441 95.1139C869.039 96.729 867.408 103.652 866.682 105.202C865.716 107.262 864.285 109.177 862.331 110.332C862.222 110.418 862.111 110.503 861.996 110.583C860.906 111.344 859.64 111.822 858.4 112.293C858.271 112.342 858.358 112.512 858.474 112.501C859.616 112.396 860.758 112.291 861.9 112.186C862.318 112.147 863.276 111.902 863.519 112.399C863.62 112.607 863.555 112.868 863.515 113.08C863.462 113.355 863.405 113.63 863.344 113.903C863.264 114.262 863.176 114.618 863.084 114.974C862.868 115.59 862.618 116.19 862.302 116.758C860.248 120.447 858.023 124.069 855.583 127.562C853.595 130.407 851.327 133.116 848.941 135.724C845.073 139.951 840.476 143.708 837.648 148.597C837.254 149.087 836.88 149.593 836.528 150.113C834.834 151.357 833.022 152.444 830.953 152.978C830.883 152.996 830.813 153.012 830.743 153.029C825.999 152.841 818.791 152.252 814.392 157.537C809.343 163.605 808.006 174.106 808.006 174.106ZM830.45 193.248C830.41 193.216 830.37 193.185 830.33 193.154C830.329 192.7 830.324 192.245 830.319 191.79C830.35 192.276 830.394 192.762 830.45 193.248ZM830.349 187.757C830.392 186.955 830.47 186.162 830.606 185.381C830.686 184.918 830.786 184.46 830.9 184.004C830.633 185.24 830.449 186.494 830.349 187.757ZM857.388 148.217C858.817 150.644 861.97 166.052 861.835 166.094C861.698 166.136 860.3 160.365 859.242 156.9C859.02 156.175 858.755 155.417 858.461 154.648C858.38 154.268 858.293 153.89 858.2 153.514C857.499 150.689 856.478 147.953 855.638 145.166C856.163 146.179 856.79 147.203 857.388 148.217ZM826.246 159.181C827.901 158.488 830.315 156.868 831.032 155.015C830.934 156.007 830.26 156.867 829.582 157.534C828.912 158.194 828.139 158.742 827.311 159.197C824.555 160.713 821.854 162.816 819.223 164.745C816.123 167.019 810.555 171.433 810.486 171.306C815.425 165.327 823.401 160.374 826.246 159.181Z" fill="#D1D1D1"/>
<path d="M-28.249 -10.1496C-28.249 -10.1496 -10.6901 -7.85975 -6.64969 -5.08864C-2.25758 -2.07619 -2.89532 8.80098 -2.89532 8.80098L0.523781 10.4058C0.523781 10.4058 -1.12185 0.83326 -2.13149 -2.88264C-3.07238 -6.3455 -4.0132 -9.8085 -4.95412 -13.2714C-5.18505 -14.1213 -5.41598 -14.9711 -5.64681 -15.821C-5.81441 -16.1596 -5.98556 -16.4972 -6.16446 -16.8326C-7.20392 -18.7806 -7.81572 -20.9329 -8.45861 -23.0699C-8.40674 -24.0012 -8.43896 -24.9445 -8.58143 -25.8434C-8.69599 -26.5667 -8.91805 -27.4162 -9.45155 -27.9243C-9.7604 -27.9189 -10.0844 -27.8148 -10.3359 -27.683C-11.0912 -27.2869 -11.553 -26.4618 -12.0263 -25.7912C-12.589 -24.9942 -13.2337 -24.2756 -14.0779 -23.7606C-14.7818 -23.3313 -15.8229 -22.7354 -16.5963 -23.301C-17.3479 -23.8507 -17.9888 -24.7272 -18.5724 -25.4388C-19.2234 -26.2329 -19.8286 -27.0639 -20.3841 -27.9264C-20.8865 -28.7064 -21.3471 -29.5114 -21.7687 -30.3361C-23.0397 -32.2358 -24.6439 -33.8085 -27.0082 -34.3122C-29.5987 -34.8641 -32.278 -34.0811 -34.8752 -34.5467C-37.4805 -35.0139 -39.8637 -37.4967 -40.3532 -40.041C-40.5623 -41.1276 -40.4556 -42.3113 -40.2228 -43.39C-40.1641 -43.6618 -40.088 -43.9913 -39.9766 -44.3177C-38.9326 -45.1852 -37.7017 -45.8004 -36.2758 -46.0137C-35.337 -46.1542 -34.3984 -46.1369 -33.4729 -46.0082C-32.813 -45.6737 -32.1386 -45.3896 -31.4372 -45.2037C-30.5151 -44.9593 -29.5914 -44.7205 -28.6667 -44.4851C-28.6623 -44.483 -28.6578 -44.481 -28.6534 -44.479C-28.5867 -44.4483 -28.5227 -44.4344 -28.4627 -44.4338C-22.6689 -42.9626 -16.8293 -41.6504 -10.994 -40.3343C-9.06636 -39.8996 -7.26814 -39.2208 -5.52602 -38.385C-5.35651 -38.3784 -5.18909 -38.2994 -5.061 -38.1188C-3.9446 -36.9938 -3.95885 -35.4522 -4.50114 -33.9286C-4.56963 -33.6978 -4.65127 -33.4692 -4.7462 -33.2445C-5.17303 -32.2341 -5.81953 -31.3821 -6.59973 -30.6557C-7.02275 -24.818 -5.58474 -18.9368 -2.52832 -13.9684C-2.37654 -14.1435 -2.2359 -14.3057 -2.10391 -14.458C-1.62394 -15.5607 -0.601239 -16.4076 0.622419 -16.642C0.725304 -16.6617 0.7716 -16.5357 0.72132 -16.4633C-0.169303 -15.1814 -0.696037 -13.7814 -0.97586 -12.324C-0.934176 -11.0959 -0.794081 -9.87212 -0.60161 -8.66024C-0.322296 -6.90214 0.0545362 -5.16103 0.41039 -3.41779L1.53207 2.07704C1.93844 4.06788 2.34485 6.05881 2.75122 8.04964C2.80503 8.2681 2.85888 8.48633 2.91273 8.70489C3.10493 9.35213 3.3234 9.99114 3.58111 10.6174C4.08384 11.8388 4.74611 12.9897 5.61372 13.9897C5.66614 12.8286 6.28543 11.7096 7.27237 11.0514C7.35869 10.9939 7.45672 11.0599 7.45032 11.1565C7.25384 14.1021 8.15746 17.078 9.91135 19.4405C9.91345 19.4429 9.91565 19.4453 9.91775 19.4477C11.4507 20.8271 13.0366 22.1707 14.4964 23.5981C14.6119 23.7111 14.7301 23.822 14.8494 23.9322C14.9783 24.0248 15.1071 24.1176 15.2351 24.2116C16.053 24.8121 16.8296 25.455 17.5669 26.1421C17.9534 26.0889 18.2855 25.8581 18.4794 25.3321C18.6586 24.8462 18.6668 24.3112 18.7035 23.803C18.7329 23.3948 18.7738 22.9874 18.8249 22.581C17.0946 19.4147 15.2979 16.1394 14.4416 12.6375C14.0673 11.1071 13.9528 9.47603 14.5171 7.96346C14.8399 7.09808 15.3857 6.3236 15.879 5.54575C16.134 5.14373 16.3889 4.74182 16.6438 4.33983C19.0413 -0.31247 24.9325 -6.39676 25.6805 -7.16037C25.7479 -7.23694 25.8138 -7.315 25.8825 -7.39056C25.9068 -7.4174 25.9401 -7.42985 25.9722 -7.42938C25.9714 -7.43421 25.9709 -7.43915 25.97 -7.44397C25.97 -7.44397 25.9744 -7.43837 25.9815 -7.42933C26.0181 -7.4258 26.052 -7.40437 26.0683 -7.36434C26.0825 -7.32924 26.0967 -7.29413 26.1109 -7.25903C26.9586 -6.12215 31.3562 0.133363 31.3557 7.56209C31.3551 15.7831 21.7318 19.5843 20.3319 22.1711C20.3307 22.1689 20.3296 22.1667 20.3284 22.1645C20.2033 22.8006 20.1215 23.4444 20.084 24.0902C19.9733 26.002 20.2505 27.9335 20.8883 29.7324C20.889 29.7334 20.8895 29.7344 20.8901 29.7354C22.2996 31.4116 23.6428 33.1488 25.0197 34.8421C26.1399 36.2196 27.297 37.5797 28.4237 38.9617C28.8302 39.5843 29.2301 40.2113 29.6202 40.8442C31.677 44.181 34.4566 47.2342 35.8105 50.9079C36.2665 52.1454 36.7072 53.3895 37.1595 54.629C37.4776 55.9675 37.8641 57.2899 38.2986 58.5944C39.73 62.8922 40.5148 67.4469 42.5104 71.5087C43.9567 74.4527 45.5765 77.5612 47.9571 79.904C46.8349 80.5653 45.8393 81.411 45.015 82.4126C44.493 81.9747 44.0282 81.4689 43.6088 80.9221C42.1094 78.3263 40.8106 75.6256 39.6497 72.8643C38.7546 70.4432 37.9909 67.9654 37.2422 65.514C36.7561 63.9222 34.765 57.0943 33.9584 55.5848C32.8862 53.5783 31.3568 51.7408 29.3447 50.6898C29.2316 50.6091 29.1163 50.5306 28.9969 50.4563C27.868 49.7532 26.5795 49.3424 25.3159 48.937C25.1853 48.8951 25.2627 48.7206 25.3797 48.7252C26.5257 48.7705 27.6715 48.8157 28.8175 48.861C29.2362 48.8776 30.2062 49.0722 30.4225 48.5629C30.5127 48.3505 30.4345 48.0928 30.3826 47.883C30.3154 47.611 30.2438 47.3401 30.169 47.0702C30.0707 46.7162 29.9637 46.3647 29.853 46.0145C29.6052 45.4109 29.3243 44.825 28.9783 44.2736C26.7344 40.6972 24.3229 37.1973 21.703 33.8373C19.5684 31.0995 17.162 28.5131 14.6421 26.0339C10.558 22.0157 5.77033 18.5049 2.69034 13.771C2.27061 13.3023 1.8711 12.8162 1.49147 12.3155C-0.26531 11.162 -2.13107 10.1716 -4.22599 9.74644C-4.29642 9.7322 -4.36715 9.7205 -4.43767 9.70722C-9.16513 10.1437 -16.3331 11.1094 -21.0025 6.06175C-26.3631 0.266939 -28.249 -10.1496 -28.249 -10.1496ZM-6.83849 -30.4411C-6.87677 -30.4078 -6.91497 -30.3742 -6.95379 -30.3414C-6.93035 -29.888 -6.91162 -29.4332 -6.89347 -28.9785C-6.88803 -29.466 -6.86946 -29.9536 -6.83849 -30.4411ZM-6.65152 -24.9528C-6.56635 -24.1544 -6.44695 -23.3659 -6.27096 -22.5935C-6.16666 -22.1356 -6.04236 -21.6832 -5.90525 -21.2335C-6.23627 -22.4543 -6.48566 -23.6972 -6.65152 -24.9528ZM22.4223 13.1152C23.7229 10.6167 26.063 -4.93532 25.9269 -4.96968C25.7872 -5.00501 24.6942 0.831306 23.8187 4.34763C23.6354 5.08347 23.4101 5.85388 23.1575 6.63735C23.0966 7.02092 23.0293 7.40317 22.9558 7.78362C22.4038 10.6415 21.5282 13.4274 20.8351 16.2541C21.3064 15.2151 21.8787 14.1593 22.4223 13.1152ZM-9.25175 3.79863C-7.56253 4.40462 -5.06676 5.89545 -4.25344 7.70862C-4.4031 6.72316 -5.12149 5.89958 -5.83377 5.26858C-6.5374 4.64507 -7.3377 4.13811 -8.18813 3.72719C-11.0207 2.35806 -13.8282 0.399355 -16.5564 -1.38939C-19.7709 -3.49711 -25.5625 -7.61402 -25.6248 -7.48284C-20.3799 -1.77151 -12.1544 2.7573 -9.25175 3.79863Z" fill="#D1D1D1"/>
<path d="M98.993 256.608C102.214 256.351 105.373 255.353 108.163 253.722C108.854 253.319 109.521 252.877 110.162 252.399C110.807 251.917 111.417 251.391 112.032 250.872C113.222 249.868 114.478 248.844 115.993 248.37C116.829 248.109 117.697 248.07 118.565 248.062C119.438 248.054 120.323 248.064 121.175 247.839C121.252 247.819 121.311 247.864 121.323 247.938C121.585 249.526 120.973 251.216 119.803 252.343C119.161 252.962 118.373 253.358 117.521 253.614C116.564 253.902 115.569 254.033 114.605 254.293C113.663 254.547 112.785 254.946 112.111 255.663C111.483 256.331 111.039 257.139 110.447 257.835C109.85 258.537 109.088 259.05 108.203 259.329C107.322 259.607 106.381 259.661 105.47 259.55C103.521 259.314 101.79 258.292 100.185 257.253C99.9832 257.123 99.7824 256.991 99.5818 256.86C99.5503 256.839 99.5346 256.81 99.5303 256.78C99.3549 256.798 99.1794 256.816 99.0035 256.83C98.859 256.841 98.8482 256.62 98.993 256.608Z" fill="#D1D1D1"/>
<path d="M100.986 230.9C102.173 231.446 102.974 231.815 103.774 232.183C103.76 232.392 103.745 232.602 103.731 232.811C102.923 232.688 102.088 232.645 101.328 232.389C101.119 232.319 101.136 231.613 100.986 230.9Z" fill="#D1D1D1"/>
<path d="M98.079 226.03C98.0806 226.032 98.0823 226.034 98.084 226.037C101.429 226.29 104.236 227.194 106.777 228.863C108.167 229.776 108.804 231.847 108.278 233.661C107.868 233.311 107.483 232.888 107.09 232.491C105.942 231.981 104.61 231.855 103.452 231.371C101.928 230.734 100.692 229.607 99.6309 228.382C99.1822 227.864 98.7616 227.323 98.3512 226.775C98.1096 226.525 97.8689 226.269 97.6289 226.004C97.7209 226.009 97.811 226.017 97.9022 226.024C97.9474 225.978 98.03 225.963 98.079 226.03Z" fill="#D1D1D1"/>
<path d="M106.108 233.682C106.519 234.005 106.828 234.318 107.038 234.619C107.284 234.798 107.507 235.003 107.68 235.252C108.001 235.713 108.067 236.28 107.877 236.809C107.682 237.352 107.267 237.781 106.747 238.039C106.161 238.329 105.504 238.396 104.861 238.349C104.521 238.324 104.183 238.277 103.841 238.271C103.49 238.265 103.155 238.318 102.819 238.424C102.472 238.533 102.134 238.675 101.779 238.761C101.459 238.839 101.131 238.866 100.802 238.851C100.195 238.822 99.584 238.692 99.0104 238.5C98.4851 238.325 97.9765 238.082 97.5492 237.73C97.0695 237.336 96.72 236.803 96.6089 236.19C96.4967 235.571 96.6247 234.914 96.97 234.38C97.0475 234.26 97.249 234.357 97.1707 234.478C97.055 234.657 96.9677 234.847 96.9065 235.041C96.9799 234.835 97.0954 234.613 97.2627 234.371C98.4316 236.142 99.9834 236.76 101.961 236.696C104.081 236.628 105.396 235.594 106.108 233.682Z" fill="#D1D1D1"/>
<path d="M108.709 225.032C108.683 222.51 109.879 220.44 110.932 218.303C111.489 217.172 112.645 217.059 113.49 217.962C115.912 220.551 116.431 223.768 116.004 227.057C115.756 228.964 115.138 231.123 113.931 232.552C112.227 234.57 111.225 236.338 111.761 239.057C112.439 242.497 111.147 243.514 107.795 242.483C105.309 241.718 102.817 241.436 100.226 241.783C99.3301 241.903 98.4155 241.923 97.5106 241.919C91.5665 241.89 88.2786 235.363 90.4525 231.174C90.9782 230.161 91.2172 229.006 91.588 227.916C91.7061 227.857 91.8241 227.799 91.9421 227.74C92.1648 229.029 92.4845 230.309 92.5923 231.609C92.9183 235.544 96.7996 239.641 100.575 240.037C102.937 240.285 105.02 239.505 106.943 238.329C107.924 237.729 109.053 236.882 109.431 235.897C110.213 233.86 110.359 231.613 109.323 229.596C108.553 228.096 108.725 226.601 108.709 225.032Z" fill="#D1D1D1"/>
<path d="M112.051 209.651C112.635 209.819 113.486 210.368 113.533 210.818C113.706 212.457 113.59 214.129 113.583 215.788C113.4 215.815 113.217 215.841 113.034 215.868C112.105 214.949 111.204 214.001 110.239 213.121C109.544 212.487 108.848 211.767 108.009 211.391C103.998 209.594 99.9007 208.801 95.4476 210.131C92.9211 210.886 90.2252 211.378 87.6026 211.419C84.8589 211.462 82.4841 212.007 80.2624 213.612C79.3161 214.296 78.1287 214.654 77.0226 215.173C76.9027 214.812 76.8263 214.708 76.8466 214.625C78.127 209.458 81.156 205.375 85.1936 201.978C85.6161 201.623 86.6805 201.742 87.3298 201.964C90.4278 203.026 93.4369 204.35 96.568 205.299C101.695 206.854 106.9 208.169 112.051 209.651Z" fill="#D1D1D1"/>
<path d="M117.429 246.707C114.774 247.299 112.844 248.819 110.973 250.62C109.879 251.674 108.66 252.815 107.278 253.327C103.222 254.831 99.0516 254.787 95.1572 252.938C93.5081 252.155 92.1288 250.759 90.7623 249.5C89.5395 248.372 88.6304 246.901 87.3584 245.842C84.3252 243.317 84.1963 238.01 87.574 234.875C87.9417 236.448 88.6339 237.842 88.5032 239.165C88.1919 242.317 89.1065 244.416 91.9401 245.916C92.5383 246.232 93.1067 246.642 93.6014 247.1C96.0027 249.326 99.1597 249.486 101.842 247.496C102.218 247.217 102.677 246.782 103.058 246.816C105.159 247.002 106.356 245.897 107.155 244.155C107.481 244.211 107.739 244.252 107.997 244.299C111.942 245.012 113.651 243.493 113.37 239.514C113.34 239.095 113.347 238.65 113.203 238.268C112.56 236.568 113.345 235.423 114.511 234.212C115.433 233.253 116.191 232.046 116.709 230.824C117.846 228.143 118.092 225.356 117.585 222.489C117.484 222.16 117.37 221.835 117.242 221.515C116.568 219.836 115.219 218.477 114.675 216.75C114.419 215.938 114.429 215.121 114.639 214.298C114.805 213.646 115.255 212.724 114.917 212.072C114.703 211.658 114.882 211.037 115.45 211.034C118.091 211.023 120.689 211.955 122.648 213.693C124.777 215.582 126.042 218.373 126.085 221.208C126.126 223.965 124.761 226.5 124.671 229.23C124.576 232.119 126.688 234.69 125.954 237.625C125.609 239.005 124.71 239.926 123.412 240.497C122.934 240.707 122.343 240.861 121.799 241.081C121.378 241.679 121.075 242.415 120.96 243.067C120.592 245.17 119.269 246.296 117.429 246.707Z" fill="#D1D1D1"/>
<path d="M85.0229 224.92C87.0102 225.242 88.8607 225.542 90.9512 225.881C90.2068 228.451 89.5095 230.857 88.7321 233.54C86.8692 230.849 85.1242 228.327 85.0229 224.92Z" fill="#D1D1D1"/>
<path d="M95.132 225.53C95.8657 226.012 96.5327 226.312 97.0094 226.795C97.8157 227.612 98.3981 228.662 99.264 229.398C100.394 230.359 99.8711 230.94 99.0244 231.62C97.8558 232.557 96.7067 233.518 95.4445 234.555C93.4464 232.009 93.8259 229.071 95.132 225.53Z" fill="#D1D1D1"/>
<path d="M104.941 233.28C104.485 234.894 103.441 235.399 102.023 235.46C100.478 235.526 99.0791 235.357 98.1806 233.685C98.8238 233.31 99.402 232.973 100.153 232.535C101.48 234.384 103.169 233.929 104.941 233.28Z" fill="#D1D1D1"/>
<path d="M103.946 245.294C102.968 245.745 101.859 245.979 100.978 246.562C99.0432 247.84 96.842 247.814 94.9706 246.373C93.9811 245.611 92.9281 244.919 91.855 244.273C90.2723 243.32 89.6453 241.909 89.5138 240.037C94.7164 243.887 94.7712 243.879 101.628 243.41C102.974 243.318 104.335 243.481 105.69 243.526C105.761 243.75 105.833 243.974 105.905 244.198C105.254 244.566 104.624 244.981 103.946 245.294Z" fill="#D1D1D1"/>
<path d="M73.6188 205.429C73.5431 203.081 75.7392 201.394 78.0449 201.948C79.2744 202.244 80.4613 202.705 81.7779 203.126C81.478 203.541 81.2429 203.881 80.9939 204.209C78.6699 207.278 76.6257 210.5 75.7187 214.263C75.4984 215.177 75.1136 215.707 74.2746 216.131C71.347 217.611 69.4617 219.809 68.928 223.162C68.4036 226.458 67.4815 229.694 66.8476 232.976C66.5874 234.323 65.8639 235.067 64.5858 235.264C62.9578 235.515 61.3119 235.644 59.452 235.851C63.5603 228.039 55.2082 223.741 54.9457 218.401C54.8899 217.265 54.9788 216.072 55.2696 214.972C56.597 209.951 66.2842 208.456 71.5345 207.787C73.0305 207.596 73.6689 206.984 73.6188 205.429Z" fill="#D1D1D1"/>
<path d="M80.0825 221.499C81.9855 220.085 83.698 218.92 85.2837 217.606C87.0286 216.16 88.9905 215.429 91.1983 215.696C97.1376 216.416 103.063 217.24 108.602 217.972C108.132 221.244 107.703 224.227 107.268 227.25C107.201 227.225 107.002 227.181 106.836 227.082C103.011 224.815 98.7961 224.144 94.4009 224.353C90.5008 224.539 86.7694 223.778 83.084 222.716C82.1407 222.444 81.256 221.982 80.0825 221.499Z" fill="#D1D1D1"/>
<path d="M65.2364 238.166C66.4581 236.756 67.1241 234.995 67.6652 233.248C67.9249 232.41 68.1616 231.566 68.4222 230.728C68.4359 230.643 68.4494 230.558 68.4631 230.474C68.4756 230.476 68.4881 230.477 68.5006 230.479C68.505 230.466 68.5092 230.452 68.5136 230.438C68.5127 230.418 68.5185 230.397 68.533 230.377C68.5508 230.321 68.5674 230.266 68.5856 230.21C68.6111 230.132 68.6951 230.114 68.7532 230.138C70.0466 228.75 71.4915 227.503 73.0573 226.423C73.1637 226.305 73.2717 226.184 73.3817 226.059C73.3748 226.111 73.3675 226.163 73.3605 226.216C73.4038 226.187 73.446 226.156 73.4894 226.127C73.6106 226.047 73.7346 226.231 73.6137 226.311C73.5149 226.377 73.4184 226.445 73.3205 226.512C72.7948 230.382 72.1053 233.782 72.0017 237.192C71.8975 240.62 72.5065 244.028 74.3182 247.401C74.3655 247.416 74.3855 247.466 74.3791 247.515C74.4423 247.631 74.5067 247.747 74.5727 247.863C74.4055 247.79 74.2398 247.718 74.0747 247.646C73.0733 247.752 72.0777 247.523 71.1368 247.205C70.1501 246.871 69.1812 246.474 68.2202 246.076C66.3429 245.299 64.4778 244.409 62.8965 243.131C62.0242 242.426 61.2531 241.601 60.6526 240.657C60.6097 240.59 60.6523 240.484 60.7413 240.484C62.5213 240.482 64.1055 239.472 65.2364 238.166Z" fill="#D1D1D1"/>
<path d="M68.9646 228.899C69.2268 228.511 69.3539 227.821 69.5501 227.15C69.8909 225.986 70.4426 224.854 70.6091 223.671C71.1511 219.819 73.5589 217.798 77.1102 216.623C78.809 216.061 80.3531 215.047 82.0257 214.385C83.4338 213.827 84.9483 213.068 86.3775 213.126C89.7044 213.26 92.8616 212.583 96.0091 211.753C102.04 210.163 107.137 211.563 111.378 215.938C111.339 216.129 111.3 216.32 111.261 216.511C109.219 216.365 107.16 216.325 105.137 216.048C101.552 215.556 98.0063 214.773 94.411 214.385C90.8413 214 87.3297 214.04 84.238 216.58C81.043 219.205 77.5561 221.481 74.3032 224.04C72.4157 225.526 70.7371 227.271 68.9646 228.899Z" fill="#D1D1D1"/>
<path d="M74.7093 226.344C74.8435 225.668 75.4652 225.026 75.9878 224.488C77.6351 222.793 79.4598 222.579 81.4973 223.836C82.1987 224.269 83.0731 224.432 83.9571 224.75C83.7301 227.854 84.7609 230.614 86.2462 233.266C86.4319 233.598 86.2997 234.199 86.1396 234.611C85.3649 236.602 84.3437 238.522 83.763 240.562C82.9882 243.283 84.0302 245.47 86.317 247.151C87.2384 247.828 88.2029 248.625 88.7439 249.59C88.9184 249.901 89.1024 250.201 89.2942 250.491C90.9462 251.943 92.6769 253.317 94.5392 254.501C95.6107 255.182 96.7243 255.799 97.8799 256.334C97.9336 256.359 97.9579 256.43 97.9293 256.482C97.0756 258.039 95.6511 259.259 93.9921 259.922C92.361 260.574 90.5489 260.63 88.891 260.087C87.2876 259.562 85.8632 258.526 84.9394 257.129C84.3795 256.282 83.9953 255.337 83.4642 254.473C83.1996 254.043 82.8976 253.636 82.5304 253.286C82.1787 252.95 81.7825 252.663 81.3761 252.395C80.5556 251.854 79.7029 251.368 78.9776 250.701C78.2965 250.075 77.7183 249.339 77.2716 248.533C75.9449 246.847 74.9063 245.087 74.3116 243.04C72.6881 237.456 73.6075 231.889 74.7093 226.344Z" fill="#D1D1D1"/>
<path d="M79.956 195.587C84.9632 196.871 84.8297 200.212 84.8297 200.212C83.6425 201.929 82.3921 202.252 80.843 201.365C80.4803 201.157 80.0545 201.059 79.6676 200.888C78.5068 200.377 77.4751 200.157 76.5209 200.249C76.3372 200.272 76.1592 200.301 75.9869 200.335C74.9239 200.578 73.9504 201.237 72.9902 202.349C72.8362 202.528 72.6879 202.665 72.5395 202.767C72.0021 203.546 71.7618 204.204 71.7618 204.204C71.7618 204.204 67.4104 203.943 65.0251 199.617C62.6399 195.29 64.4175 191.132 64.4175 191.132C64.4175 191.132 65.3054 192.854 69.0758 195.169C72.8462 197.484 74.9487 194.303 79.956 195.587Z" fill="#D1D1D1"/>
<path d="M136.021 214.775C136.026 217.772 134.185 220.401 134.019 223.362C133.918 225.162 134.931 226.583 135.618 228.163C136.294 229.715 136.406 231.39 135.399 232.846C134.433 234.241 132.738 235.034 131.047 234.924C129.375 234.816 127.821 233.861 126.857 232.535C125.26 229.563 127.287 226.319 127.997 223.533C128.719 220.699 128.028 217.638 126.323 215.295C125.359 213.971 124.096 212.881 122.596 212.182C122.178 211.987 122.072 211.554 122.308 211.17C124.036 208.351 127.711 206.945 130.882 207.9C133.851 208.794 136.016 211.719 136.021 214.775Z" fill="#D1D1D1"/>
<path d="M112.905 173.934C112.905 173.934 95.4899 170.727 91.6003 167.748C87.3721 164.51 88.5791 153.681 88.5791 153.681L85.2488 151.899C85.2488 151.899 86.3905 161.545 87.2039 165.308C87.962 168.816 88.72 172.323 89.4781 175.831C89.6642 176.692 89.8503 177.552 90.0362 178.413C90.1858 178.76 90.3391 179.106 90.5001 179.451C91.4361 181.45 91.9342 183.632 92.4642 185.8C92.3636 186.727 92.3463 187.671 92.4415 188.576C92.518 189.304 92.6952 190.164 93.2013 190.699C93.51 190.71 93.8391 190.623 94.0971 190.505C94.8721 190.149 95.3765 189.349 95.8844 188.704C96.4881 187.938 97.1695 187.254 98.0396 186.784C98.765 186.392 99.8359 185.852 100.579 186.457C101.3 187.045 101.894 187.954 102.44 188.695C103.048 189.522 103.609 190.384 104.119 191.275C104.58 192.08 104.997 192.908 105.375 193.753C106.545 195.717 108.064 197.372 110.399 197.999C112.957 198.686 115.674 198.044 118.243 198.645C120.82 199.248 123.07 201.853 123.425 204.419C123.577 205.515 123.409 206.692 123.12 207.757C123.047 208.025 122.953 208.35 122.825 208.67C121.737 209.482 120.476 210.032 119.041 210.17C118.096 210.261 117.159 210.195 116.242 210.018C115.6 209.649 114.942 209.33 114.251 209.107C113.343 208.815 112.433 208.528 111.522 208.245C111.518 208.242 111.513 208.24 111.509 208.238C111.444 208.204 111.381 208.186 111.321 208.183C105.612 206.41 99.8495 204.793 94.0912 203.173C92.189 202.638 90.4288 201.866 88.7329 200.94C88.5639 200.924 88.4009 200.837 88.2824 200.65C87.2266 199.468 87.3216 197.929 87.943 196.436C88.0235 196.209 88.117 195.985 88.2236 195.766C88.7028 194.779 89.3931 193.962 90.2103 193.278C90.9387 187.47 89.8109 181.522 87.0191 176.4C86.8584 176.567 86.7094 176.721 86.5696 176.867C86.0325 177.942 84.9669 178.735 83.7326 178.905C83.6288 178.919 83.5892 178.791 83.6432 178.721C84.5998 177.488 85.1992 176.117 85.555 174.676C85.5777 173.448 85.502 172.218 85.3733 170.998C85.1865 169.228 84.9015 167.469 84.6375 165.71L83.8054 160.164C83.5039 158.154 83.2024 156.145 82.901 154.135C82.8587 153.914 82.8163 153.694 82.774 153.472C82.616 152.816 82.4313 152.166 82.2068 151.528C81.7688 150.282 81.1678 149.097 80.3538 148.053C80.2406 149.21 79.5635 150.295 78.5434 150.901C78.4542 150.954 78.3597 150.883 78.3712 150.786C78.7218 147.855 77.9754 144.836 76.3478 142.385C76.3458 142.382 76.3437 142.38 76.3417 142.377C74.8832 140.919 73.37 139.495 71.987 137.993C71.8775 137.874 71.7653 137.757 71.6519 137.64C71.5281 137.541 71.4043 137.442 71.2814 137.341C70.4961 136.699 69.7542 136.016 69.054 135.291C68.6652 135.324 68.3215 135.537 68.1003 136.052C67.8959 136.528 67.8596 137.062 67.7964 137.567C67.7456 137.974 67.6834 138.378 67.6111 138.781C69.1731 142.034 70.7956 145.399 71.4672 148.941C71.7607 150.489 71.7896 152.124 71.1468 153.605C70.7791 154.452 70.1934 155.197 69.66 155.948C69.3843 156.336 69.1086 156.724 68.8331 157.112C66.1949 161.632 59.993 167.399 59.206 168.123C59.1346 168.195 59.0647 168.27 58.9922 168.342C58.9665 168.367 58.9326 168.378 58.9005 168.376C58.9011 168.381 58.9014 168.386 58.902 168.391C58.902 168.391 58.8978 168.385 58.8913 168.375C58.8549 168.37 58.8222 168.347 58.808 168.306C58.7957 168.27 58.7833 168.234 58.771 168.198C57.984 167.019 53.9203 160.541 54.3103 153.123C54.7418 144.913 64.5511 141.622 66.0847 139.112C66.0858 139.114 66.0867 139.116 66.0878 139.118C66.246 138.49 66.3616 137.851 66.4328 137.208C66.6435 135.305 66.468 133.361 65.9253 131.532C65.9248 131.531 65.9243 131.53 65.9237 131.529C64.604 129.781 63.3537 127.976 62.0675 126.212C61.021 124.778 59.9368 123.359 58.884 121.92C58.5107 121.277 58.1443 120.63 57.7879 119.977C55.9089 116.537 53.2931 113.343 52.1336 109.603C51.7431 108.343 51.3682 107.078 50.9815 105.816C50.734 104.463 50.4174 103.122 50.0519 101.797C48.8477 97.4298 48.3027 92.8403 46.5228 88.6794C45.2328 85.6637 43.7782 82.4745 41.5236 80.0102C42.679 79.4086 43.7175 78.6162 44.5931 77.6592C45.0915 78.1238 45.5292 78.6534 45.9193 79.2213C47.2805 81.8922 48.4361 84.6573 49.4506 87.4757C50.2175 89.9403 50.8503 92.4547 51.4695 94.942C51.8714 96.5571 53.502 103.48 54.2284 105.03C55.1939 107.09 56.6249 109.005 58.5791 110.16C58.6879 110.246 58.7989 110.331 58.9142 110.411C60.0046 111.173 61.2698 111.65 62.5105 112.121C62.6387 112.17 62.5523 112.34 62.4357 112.33C61.2937 112.224 60.1518 112.119 59.0097 112.014C58.5925 111.975 57.634 111.73 57.3913 112.227C57.2901 112.435 57.3547 112.696 57.3955 112.908C57.4484 113.184 57.5056 113.458 57.5663 113.731C57.6458 114.09 57.7342 114.446 57.8265 114.802C58.0423 115.418 58.292 116.018 58.6086 116.586C60.6621 120.275 62.8867 123.897 65.3269 127.39C67.3152 130.236 69.5827 132.945 71.9691 135.552C75.837 139.779 80.434 143.536 83.2617 148.425C83.6562 148.915 84.0297 149.421 84.3826 149.941C86.0765 151.185 87.8878 152.272 89.9575 152.807C90.0271 152.824 90.0971 152.84 90.1669 152.857C94.9107 152.669 102.119 152.08 106.518 157.366C111.567 163.433 112.905 173.934 112.905 173.934ZM90.4599 193.076C90.4999 193.044 90.5398 193.013 90.5803 192.982C90.5807 192.528 90.5858 192.073 90.5915 191.618C90.5605 192.105 90.5164 192.591 90.4599 193.076ZM90.5609 187.585C90.5177 186.783 90.4398 185.99 90.3045 185.209C90.2244 184.746 90.124 184.288 90.0106 183.832C90.2772 185.068 90.4611 186.323 90.5609 187.585ZM63.5224 148.046C62.0927 150.473 58.9406 165.88 59.0747 165.922C59.2123 165.965 60.6098 160.194 61.6684 156.728C61.89 156.003 62.1554 155.245 62.4487 154.476C62.5297 154.096 62.6169 153.718 62.7102 153.342C63.4112 150.517 64.4317 147.781 65.272 144.994C64.7469 146.007 64.12 147.031 63.5224 148.046ZM94.6646 159.01C93.0095 158.316 90.5953 156.696 89.8781 154.843C89.9759 155.835 90.6502 156.695 91.3284 157.363C91.9984 158.022 92.771 158.57 93.5987 159.025C96.3556 160.541 99.0566 162.644 101.687 164.573C104.787 166.847 110.355 171.262 110.424 171.134C105.485 165.155 97.5087 160.202 94.6646 159.01Z" fill="#D1D1D1"/>
</svg>
