<svg width="95" height="48" viewBox="0 0 95 48" fill="none" xmlns="http://www.w3.org/2000/svg">
<g filter="url(#filter0_n_130_45563)">
<foreignObject x="57.047" y="19.1954" width="30.7127" height="34.6639"><div xmlns="http://www.w3.org/1999/xhtml" style="backdrop-filter:blur(3.2px);clip-path:url(#bgblur_0_130_45563_clip_path);height:100%;width:100%"></div></foreignObject><path data-figma-bg-blur-radius="6.39053" d="M75.9092 41.2463C75.9092 40.8433 75.7922 40.4792 75.5581 40.1542C75.3241 39.8292 74.8886 39.5301 74.2515 39.2571C73.6274 38.9711 72.7238 38.711 71.5407 38.477C70.4745 38.243 69.4799 37.9504 68.5568 37.5994C67.6467 37.2353 66.8536 36.7998 66.1775 36.2927C65.5144 35.7857 64.9944 35.1876 64.6173 34.4985C64.2403 33.7964 64.0518 32.9968 64.0518 32.0997C64.0518 31.2156 64.2403 30.3835 64.6173 29.6034C65.0074 28.8233 65.5599 28.1342 66.275 27.5362C67.0031 26.9251 67.8872 26.4505 68.9273 26.1125C69.9805 25.7615 71.1636 25.5859 72.4768 25.5859C74.31 25.5859 75.8832 25.8785 77.1963 26.4635C78.5225 27.0486 79.5366 27.8547 80.2387 28.8818C80.8042 29.6839 81.1461 30.5753 81.2644 31.5562C81.3172 31.9942 80.9537 32.3533 80.5125 32.3533H76.4935C76.0523 32.3533 75.7083 31.9901 75.6029 31.5617C75.5444 31.324 75.458 31.1003 75.3436 30.8906C75.1226 30.4485 74.7716 30.104 74.2905 29.857C73.8224 29.5969 73.2114 29.4669 72.4573 29.4669C71.8332 29.4669 71.2936 29.5774 70.8386 29.7984C70.3835 30.0065 70.0325 30.2925 69.7854 30.6566C69.5514 31.0076 69.4344 31.3976 69.4344 31.8267C69.4344 32.1517 69.4994 32.4443 69.6294 32.7043C69.7724 32.9513 70 33.1789 70.312 33.3869C70.624 33.5949 71.0271 33.7899 71.5212 33.972C72.0282 34.141 72.6523 34.297 73.3934 34.44C74.9146 34.752 76.2732 35.1616 77.4694 35.6687C78.6655 36.1627 79.6146 36.8388 80.3167 37.6969C81.0188 38.542 81.3699 39.6536 81.3699 41.0318C81.3699 41.9679 81.1618 42.826 80.7458 43.6061C80.3297 44.3862 79.7317 45.0688 78.9516 45.6539C78.1715 46.2259 77.2353 46.6745 76.1432 46.9995C75.0641 47.3116 73.8484 47.4676 72.4963 47.4676C70.533 47.4676 68.8688 47.1165 67.5037 46.4145C66.1515 45.7124 65.1244 44.8218 64.4223 43.7426C63.8939 42.9052 63.5681 42.0524 63.4449 41.1844C63.3829 40.7476 63.7463 40.3882 64.1875 40.3882H67.9406C68.3713 40.3882 68.712 40.7335 68.8056 41.1538C68.8999 41.5779 69.064 41.9403 69.2979 42.241C69.6749 42.709 70.1495 43.0471 70.7216 43.2551C71.3066 43.4631 71.9372 43.5671 72.6133 43.5671C73.3414 43.5671 73.946 43.4696 74.427 43.2746C74.9081 43.0666 75.2721 42.7935 75.5191 42.4555C75.7792 42.1044 75.9092 41.7014 75.9092 41.2463Z" fill="#2D2D30"/>
<foreignObject x="38.4649" y="19.1954" width="32.7713" height="34.6639"><div xmlns="http://www.w3.org/1999/xhtml" style="backdrop-filter:blur(3.2px);clip-path:url(#bgblur_1_130_45563_clip_path);height:100%;width:100%"></div></foreignObject><path data-figma-bg-blur-radius="6.39053" d="M44.8555 36.7413V36.3317C44.8555 34.7846 45.0765 33.3609 45.5185 32.0607C45.9606 30.7476 46.6042 29.6099 47.4493 28.6478C48.2944 27.6857 49.3345 26.9381 50.5697 26.405C51.8048 25.859 53.222 25.5859 54.8212 25.5859C56.4204 25.5859 57.844 25.859 59.0922 26.405C60.3403 26.9381 61.387 27.6857 62.2321 28.6478C63.0902 29.6099 63.7403 30.7476 64.1823 32.0607C64.6244 33.3609 64.8454 34.7846 64.8454 36.3317V36.7413C64.8454 38.2755 64.6244 39.6991 64.1823 41.0123C63.7403 42.3125 63.0902 43.4501 62.2321 44.4252C61.387 45.3873 60.3468 46.1349 59.1117 46.668C57.8765 47.2011 56.4594 47.4676 54.8602 47.4676C53.261 47.4676 51.8373 47.2011 50.5892 46.668C49.354 46.1349 48.3074 45.3873 47.4493 44.4252C46.6042 43.4501 45.9606 42.3125 45.5185 41.0123C45.0765 39.6991 44.8555 38.2755 44.8555 36.7413ZM50.4721 36.3317V36.7413C50.4721 37.6254 50.5502 38.451 50.7062 39.2181C50.8622 39.9852 51.1092 40.6613 51.4473 41.2463C51.7983 41.8184 52.2534 42.267 52.8124 42.592C53.3715 42.917 54.0541 43.0796 54.8602 43.0796C55.6403 43.0796 56.3099 42.917 56.8689 42.592C57.428 42.267 57.8765 41.8184 58.2146 41.2463C58.5526 40.6613 58.7997 39.9852 58.9557 39.2181C59.1247 38.451 59.2092 37.6254 59.2092 36.7413V36.3317C59.2092 35.4736 59.1247 34.6675 58.9557 33.9134C58.7997 33.1464 58.5461 32.4703 58.1951 31.8852C57.857 31.2871 57.4085 30.8191 56.8494 30.481C56.2904 30.143 55.6143 29.974 54.8212 29.974C54.0281 29.974 53.352 30.143 52.7929 30.481C52.2469 30.8191 51.7983 31.2871 51.4473 31.8852C51.1092 32.4703 50.8622 33.1464 50.7062 33.9134C50.5502 34.6675 50.4721 35.4736 50.4721 36.3317Z" fill="#2D2D30"/>
<foreignObject x="18.7169" y="19.1954" width="32.7713" height="34.6639"><div xmlns="http://www.w3.org/1999/xhtml" style="backdrop-filter:blur(3.2px);clip-path:url(#bgblur_2_130_45563_clip_path);height:100%;width:100%"></div></foreignObject><path data-figma-bg-blur-radius="6.39053" d="M25.1074 36.7413V36.3317C25.1074 34.7846 25.3284 33.3609 25.7705 32.0607C26.2126 30.7476 26.8561 29.6099 27.7012 28.6478C28.5463 27.6857 29.5865 26.9381 30.8216 26.405C32.0568 25.859 33.4739 25.5859 35.0731 25.5859C36.6723 25.5859 38.096 25.859 39.3441 26.405C40.5923 26.9381 41.6389 27.6857 42.484 28.6478C43.3421 29.6099 43.9922 30.7476 44.4343 32.0607C44.8763 33.3609 45.0973 34.7846 45.0973 36.3317V36.7413C45.0973 38.2755 44.8763 39.6991 44.4343 41.0123C43.9922 42.3125 43.3421 43.4501 42.484 44.4252C41.6389 45.3873 40.5988 46.1349 39.3636 46.668C38.1285 47.2011 36.7113 47.4676 35.1121 47.4676C33.5129 47.4676 32.0893 47.2011 30.8411 46.668C29.606 46.1349 28.5593 45.3873 27.7012 44.4252C26.8561 43.4501 26.2126 42.3125 25.7705 41.0123C25.3284 39.6991 25.1074 38.2755 25.1074 36.7413ZM30.7241 36.3317V36.7413C30.7241 37.6254 30.8021 38.451 30.9581 39.2181C31.1141 39.9852 31.3612 40.6613 31.6992 41.2463C32.0503 41.8184 32.5053 42.267 33.0644 42.592C33.6235 42.917 34.306 43.0796 35.1121 43.0796C35.8922 43.0796 36.5618 42.917 37.1209 42.592C37.6799 42.267 38.1285 41.8184 38.4665 41.2463C38.8046 40.6613 39.0516 39.9852 39.2076 39.2181C39.3766 38.451 39.4612 37.6254 39.4612 36.7413V36.3317C39.4612 35.4736 39.3766 34.6675 39.2076 33.9134C39.0516 33.1464 38.7981 32.4703 38.447 31.8852C38.109 31.2871 37.6604 30.8191 37.1014 30.481C36.5423 30.143 35.8662 29.974 35.0731 29.974C34.28 29.974 33.604 30.143 33.0449 30.481C32.4988 30.8191 32.0503 31.2871 31.6992 31.8852C31.3612 32.4703 31.1141 33.1464 30.9581 33.9134C30.8021 34.6675 30.7241 35.4736 30.7241 36.3317Z" fill="#2D2D30"/>
<foreignObject x="8.36923" y="19.1954" width="24.7459" height="34.2733"><div xmlns="http://www.w3.org/1999/xhtml" style="backdrop-filter:blur(3.2px);clip-path:url(#bgblur_3_130_45563_clip_path);height:100%;width:100%"></div></foreignObject><path data-figma-bg-blur-radius="6.39053" d="M20.3764 30.5785V46.2787C20.3764 46.7199 20.0188 47.0775 19.5776 47.0775H15.5586C15.1174 47.0775 14.7598 46.7199 14.7598 46.2787V26.7748C14.7598 26.3336 15.1174 25.976 15.5586 25.976H19.3016C19.7205 25.976 20.0682 26.2996 20.0983 26.7174L20.3764 30.5785ZM26.1878 25.7003C26.5215 25.7568 26.73 26.0657 26.7236 26.4041L26.6536 30.1429C26.6446 30.623 26.2166 30.9898 25.7377 30.9557C25.7062 30.9534 25.6744 30.9512 25.6421 30.9491C25.265 30.9101 24.9205 30.8906 24.6085 30.8906C23.8154 30.8906 23.1263 30.9946 22.5412 31.2026C21.9691 31.3976 21.4881 31.6902 21.098 32.0802C20.721 32.4703 20.435 32.9448 20.2399 33.5039C20.1246 33.8581 20.0406 34.2435 19.9879 34.6603C19.94 35.039 19.5691 35.3038 19.2045 35.1906C18.962 35.1154 18.7959 34.8909 18.8013 34.6371C18.827 33.4363 18.962 32.324 19.2063 31.3001C19.4793 30.143 19.8759 29.1354 20.3959 28.2773C20.929 27.4192 21.5791 26.7561 22.3462 26.288C23.1133 25.82 23.9909 25.5859 24.979 25.5859C25.291 25.5859 25.6096 25.6119 25.9346 25.6639C26.0234 25.6746 26.1078 25.6867 26.1878 25.7003Z" fill="#2D2D30"/>
<foreignObject x="69.8575" y="-1.57022" width="30.7127" height="34.6639"><div xmlns="http://www.w3.org/1999/xhtml" style="backdrop-filter:blur(3.2px);clip-path:url(#bgblur_4_130_45563_clip_path);height:100%;width:100%"></div></foreignObject><path data-figma-bg-blur-radius="6.39053" d="M88.7197 20.4807C88.7197 20.0777 88.6027 19.7136 88.3687 19.3886C88.1347 19.0635 87.6991 18.7645 87.062 18.4915C86.438 18.2054 85.5343 17.9454 84.3512 17.7114C83.2851 17.4773 82.2905 17.1848 81.3673 16.8338C80.4572 16.4697 79.6641 16.0342 78.9881 15.5271C78.325 15.02 77.8049 14.422 77.4279 13.7329C77.0508 13.0308 76.8623 12.2312 76.8623 11.3341C76.8623 10.45 77.0508 9.61789 77.4279 8.8378C77.8179 8.0577 78.3705 7.36862 79.0856 6.77055C79.8137 6.15947 80.6978 5.68492 81.7379 5.34688C82.791 4.99583 83.9742 4.82031 85.2873 4.82031C87.1205 4.82031 88.6937 5.11285 90.0069 5.69792C91.3331 6.28299 92.3472 7.08909 93.0493 8.11621C93.6148 8.91823 93.9567 9.80969 94.075 10.7906C94.1278 11.2286 93.7642 11.5876 93.3231 11.5876H89.304C88.8629 11.5876 88.5189 11.2244 88.4135 10.796C88.355 10.5584 88.2686 10.3347 88.1542 10.125C87.9331 9.6829 87.5821 9.33836 87.101 9.09133C86.633 8.8313 86.0219 8.70128 85.2678 8.70128C84.6437 8.70128 84.1042 8.8118 83.6491 9.03282C83.1941 9.24085 82.843 9.52688 82.596 9.89093C82.362 10.242 82.245 10.632 82.245 11.0611C82.245 11.3861 82.31 11.6786 82.44 11.9387C82.583 12.1857 82.8105 12.4132 83.1226 12.6213C83.4346 12.8293 83.8376 13.0243 84.3317 13.2063C84.8388 13.3753 85.4628 13.5314 86.2039 13.6744C87.7251 13.9864 89.0838 14.396 90.2799 14.903C91.4761 15.3971 92.4252 16.0732 93.1273 16.9313C93.8294 17.7764 94.1804 18.888 94.1804 20.2662C94.1804 21.2023 93.9724 22.0604 93.5563 22.8405C93.1403 23.6206 92.5422 24.3032 91.7621 24.8882C90.982 25.4603 90.0459 25.9089 88.9538 26.2339C87.8746 26.5459 86.659 26.702 85.3068 26.702C83.3436 26.702 81.6794 26.3509 80.3142 25.6488C78.9621 24.9468 77.9349 24.0561 77.2328 22.977C76.7044 22.1396 76.3786 21.2868 76.2554 20.4188C76.1934 19.982 76.5569 19.6226 76.998 19.6226H80.7512C81.1818 19.6226 81.5226 19.9678 81.6161 20.3882C81.7105 20.8123 81.8746 21.1747 82.1084 21.4753C82.4855 21.9434 82.96 22.2814 83.5321 22.4895C84.1172 22.6975 84.7478 22.8015 85.4238 22.8015C86.1519 22.8015 86.7565 22.704 87.2376 22.509C87.7186 22.3009 88.0827 22.0279 88.3297 21.6899C88.5897 21.3388 88.7197 20.9358 88.7197 20.4807Z" fill="#2D2D30"/>
<foreignObject x="53.4454" y="-1.57022" width="31.5623" height="34.6639"><div xmlns="http://www.w3.org/1999/xhtml" style="backdrop-filter:blur(3.2px);clip-path:url(#bgblur_5_130_45563_clip_path);height:100%;width:100%"></div></foreignObject><path data-figma-bg-blur-radius="6.39053" d="M72.1224 21.5533V12.1532C72.1224 11.4771 72.0119 10.8985 71.7909 10.4175C71.5699 9.92343 71.2253 9.53988 70.7573 9.26685C70.3022 8.99382 69.7106 8.8573 68.9825 8.8573C68.3585 8.8573 67.8189 8.96782 67.3638 9.18884C66.9088 9.39687 66.5578 9.7024 66.3107 10.1055C66.195 10.2882 66.1063 10.4867 66.0448 10.7008C65.923 11.1248 65.5825 11.4901 65.1414 11.4901H61.1223C60.6811 11.4901 60.3171 11.1306 60.3798 10.694C60.4673 10.0855 60.6565 9.49925 60.9476 8.93531C61.3636 8.12921 61.9682 7.42063 62.7613 6.80955C63.5544 6.18548 64.497 5.69792 65.5891 5.34688C66.6943 4.99583 67.9294 4.82031 69.2946 4.82031C70.9328 4.82031 72.389 5.09335 73.6631 5.63941C74.9373 6.18548 75.9384 7.00458 76.6665 8.09671C77.4076 9.18884 77.7781 10.554 77.7781 12.1922V21.2218C77.7781 22.3789 77.8496 23.3281 77.9926 24.0691C78.1307 24.7721 78.3294 25.3903 78.5887 25.9236C78.6069 25.961 78.6167 26.0021 78.6167 26.0437C78.6167 26.1918 78.4966 26.3119 78.3485 26.3119H73.4454C73.1375 26.3119 72.8532 26.1363 72.7459 25.8478C72.5669 25.3669 72.4241 24.8066 72.3174 24.1667C72.1874 23.2956 72.1224 22.4244 72.1224 21.5533ZM72.0647 13.4599C72.5059 13.4599 72.8635 13.8175 72.8635 14.2587V18V17.4376C72.8635 16.9964 72.5059 16.6387 72.0647 16.6387H69.7626C69.0216 16.6387 68.378 16.7233 67.8319 16.8923C67.2858 17.0613 66.8373 17.3018 66.4862 17.6139C66.1352 17.9129 65.8752 18.2639 65.7061 18.667C65.5501 19.07 65.4721 19.5121 65.4721 19.9932C65.4721 20.4742 65.5826 20.9098 65.8037 21.2998C66.0247 21.6769 66.3432 21.9759 66.7593 22.1969C67.1753 22.4049 67.6629 22.509 68.222 22.509C69.0671 22.509 69.8016 22.3399 70.4257 22.0019C71.0498 21.6639 71.5309 21.2478 71.8689 20.7537C72.1336 20.3812 72.9815 20.259 73.2232 20.6469L73.7023 21.4161C73.8249 21.6129 73.8494 21.8569 73.7551 22.0688C73.565 22.4959 73.3263 22.9352 73.039 23.3866C72.688 23.9586 72.2394 24.4982 71.6934 25.0053C71.1473 25.4993 70.4907 25.9089 69.7236 26.2339C68.9565 26.5459 68.0464 26.702 66.9933 26.702C65.6541 26.702 64.4385 26.4354 63.3464 25.9024C62.2672 25.3563 61.4091 24.6087 60.7721 23.6596C60.148 22.6975 59.8359 21.6053 59.8359 20.3832C59.8359 19.2781 60.044 18.2964 60.46 17.4383C60.8761 16.5802 61.4871 15.8587 62.2932 15.2736C63.1123 14.6755 64.133 14.227 65.3551 13.9279C66.5773 13.6159 67.9944 13.4599 69.6066 13.4599H72.0647Z" fill="#2D2D30"/>
<foreignObject x="23.5216" y="-1.57022" width="43.0486" height="34.2733"><div xmlns="http://www.w3.org/1999/xhtml" style="backdrop-filter:blur(3.2px);clip-path:url(#bgblur_6_130_45563_clip_path);height:100%;width:100%"></div></foreignObject><path data-figma-bg-blur-radius="6.39053" d="M35.5483 9.57889V25.5131C35.5483 25.9543 35.1906 26.3119 34.7495 26.3119H30.7109C30.2698 26.3119 29.9121 25.9543 29.9121 25.5131V6.00918C29.9121 5.568 30.2698 5.21036 30.7109 5.21036H34.46C34.8764 5.21036 35.2229 5.53017 35.2563 5.94519L35.5483 9.57889ZM34.7957 14.2406C34.7647 14.6703 34.4189 15.02 33.9881 15.02C33.5573 15.02 33.206 14.6706 33.225 14.2401C33.2767 13.0692 33.4465 11.977 33.7346 10.9636C34.0986 9.71541 34.6252 8.63627 35.3143 7.72616C36.0163 6.80305 36.881 6.08797 37.9081 5.5809C38.9352 5.07384 40.1248 4.82031 41.477 4.82031C42.4131 4.82031 43.2712 4.96333 44.0513 5.24936C44.8314 5.5224 45.501 5.95795 46.0601 6.55602C46.6321 7.14109 47.0742 7.90819 47.3862 8.8573C47.6983 9.79342 47.8543 10.9181 47.8543 12.2312V25.5131C47.8543 25.9543 47.4966 26.3119 47.0555 26.3119H43.0364C42.5952 26.3119 42.2376 25.9543 42.2376 25.5131V12.8553C42.2376 11.8932 42.1076 11.1521 41.8476 10.632C41.5875 10.112 41.217 9.74791 40.7359 9.53988C40.2679 9.33186 39.7023 9.22785 39.0392 9.22785C38.3111 9.22785 37.674 9.37736 37.128 9.6764C36.5949 9.97544 36.1529 10.3915 35.8018 10.9246C35.4508 11.4446 35.1907 12.0557 35.0217 12.7578C34.9084 13.2286 34.833 13.7229 34.7957 14.2406ZM47.3555 13.6728C47.3229 14.074 47.0283 14.4143 46.6289 14.4647L46.2178 14.5166C45.7407 14.5768 45.317 14.2046 45.3441 13.7245C45.4026 12.6867 45.5632 11.7079 45.826 10.788C46.1771 9.60489 46.6906 8.56477 47.3667 7.66766C48.0558 6.77055 48.9074 6.07496 49.9215 5.5809C50.9357 5.07384 52.1058 4.82031 53.432 4.82031C54.4461 4.82031 55.3692 4.96983 56.2013 5.26887C57.0334 5.5549 57.742 6.01646 58.3271 6.65353C58.9251 7.27761 59.3802 8.09671 59.6922 9.11083C60.0173 10.125 60.1798 11.3666 60.1798 12.8358V25.5131C60.1798 25.9543 59.8221 26.3119 59.381 26.3119H55.3424C54.9012 26.3119 54.5436 25.9543 54.5436 25.5131V12.8358C54.5436 11.8607 54.4136 11.1196 54.1535 10.6125C53.9065 10.0925 53.5425 9.73491 53.0614 9.53988C52.5934 9.33186 52.0343 9.22785 51.3842 9.22785C50.7081 9.22785 50.1166 9.36436 49.6095 9.6374C49.1024 9.89743 48.6799 10.2615 48.3418 10.7295C48.0038 11.1976 47.7503 11.7437 47.5812 12.3677C47.4682 12.7766 47.3929 13.2116 47.3555 13.6728Z" fill="#2D2D30"/>
<foreignObject x="3.89267" y="-1.57022" width="32.7713" height="34.6639"><div xmlns="http://www.w3.org/1999/xhtml" style="backdrop-filter:blur(3.2px);clip-path:url(#bgblur_7_130_45563_clip_path);height:100%;width:100%"></div></foreignObject><path data-figma-bg-blur-radius="6.39053" d="M10.2832 15.9757V15.5661C10.2832 14.0189 10.5042 12.5953 10.9463 11.2951C11.3883 9.98194 12.0319 8.8443 12.877 7.88218C13.7221 6.92007 14.7622 6.17248 15.9974 5.63941C17.2325 5.09335 18.6497 4.82031 20.2489 4.82031C21.8481 4.82031 23.2718 5.09335 24.5199 5.63941C25.7681 6.17248 26.8147 6.92007 27.6598 7.88218C28.5179 8.8443 29.168 9.98194 29.61 11.2951C30.0521 12.5953 30.2731 14.0189 30.2731 15.5661V15.9757C30.2731 17.5099 30.0521 18.9335 29.61 20.2467C29.168 21.5468 28.5179 22.6845 27.6598 23.6596C26.8147 24.6217 25.7746 25.3693 24.5394 25.9024C23.3043 26.4354 21.8871 26.702 20.2879 26.702C18.6887 26.702 17.265 26.4354 16.0169 25.9024C14.7817 25.3693 13.7351 24.6217 12.877 23.6596C12.0319 22.6845 11.3883 21.5468 10.9463 20.2467C10.5042 18.9335 10.2832 17.5099 10.2832 15.9757ZM15.8999 15.5661V15.9757C15.8999 16.8598 15.9779 17.6854 16.1339 18.4525C16.2899 19.2196 16.537 19.8956 16.875 20.4807C17.226 21.0528 17.6811 21.5013 18.2402 21.8264C18.7992 22.1514 19.4818 22.3139 20.2879 22.3139C21.068 22.3139 21.7376 22.1514 22.2967 21.8264C22.8557 21.5013 23.3043 21.0528 23.6423 20.4807C23.9804 19.8956 24.2274 19.2196 24.3834 18.4525C24.5524 17.6854 24.6369 16.8598 24.6369 15.9757V15.5661C24.6369 14.708 24.5524 13.9019 24.3834 13.1478C24.2274 12.3807 23.9739 11.7046 23.6228 11.1196C23.2848 10.5215 22.8362 10.0534 22.2772 9.71541C21.7181 9.37736 21.042 9.20834 20.2489 9.20834C19.4558 9.20834 18.7797 9.37736 18.2207 9.71541C17.6746 10.0534 17.226 10.5215 16.875 11.1196C16.537 11.7046 16.2899 12.3807 16.1339 13.1478C15.9779 13.9019 15.8999 14.708 15.8999 15.5661Z" fill="#2D2D30"/>
<foreignObject x="-6.39053" y="-6.39053" width="25.3182" height="39.4764"><div xmlns="http://www.w3.org/1999/xhtml" style="backdrop-filter:blur(3.2px);clip-path:url(#bgblur_8_130_45563_clip_path);height:100%;width:100%"></div></foreignObject><path data-figma-bg-blur-radius="6.39053" d="M11.4877 5.20713C11.9288 5.20713 12.2865 5.56477 12.2865 6.00595V8.3868C12.2865 8.82797 11.9288 9.18561 11.4877 9.18561H0.798816C0.357641 9.18561 0 8.82797 0 8.3868V6.00595C0 5.56477 0.357642 5.20713 0.798817 5.20713H11.4877ZM3.04237 0.798817C3.04237 0.357642 3.40001 0 3.84119 0H7.86023C8.30141 0 8.65905 0.357642 8.65905 0.798817V19.9509C8.65905 20.562 8.73706 21.03 8.89308 21.3551C9.0621 21.6801 9.30913 21.9077 9.63417 22.0377C9.95921 22.1547 10.3688 22.2132 10.8628 22.2132C11.2139 22.2132 11.5259 22.2002 11.7989 22.1742C12.1744 22.123 12.5222 22.4094 12.524 22.7883L12.5373 25.6081C12.5389 25.9557 12.3162 26.2675 11.9796 26.3542C11.6615 26.4362 11.3282 26.5055 10.9798 26.5622C10.4208 26.6532 9.80319 26.6987 9.12711 26.6987C7.89196 26.6987 6.81283 26.4972 5.88971 26.0942C4.9796 25.6781 4.27752 25.015 3.78346 24.1049C3.2894 23.1948 3.04237 21.9987 3.04237 20.5165V0.798817Z" fill="#2D2D30"/>
</g>
<defs>
<filter id="filter0_n_130_45563" x="0" y="0" width="94.1797" height="47.4688" filterUnits="userSpaceOnUse" color-interpolation-filters="sRGB">
<feFlood flood-opacity="0" result="BackgroundImageFix"/>
<feBlend mode="normal" in="SourceGraphic" in2="BackgroundImageFix" result="shape"/>
<feTurbulence type="fractalNoise" baseFrequency="10 10" stitchTiles="stitch" numOctaves="3" result="noise" seed="5901" />
<feColorMatrix in="noise" type="luminanceToAlpha" result="alphaNoise" />
<feComponentTransfer in="alphaNoise" result="coloredNoise1">
<feFuncA type="discrete" tableValues="0 0 0 0 0 0 0 0 0 1 1 1 1 1 1 1 1 1 1 1 1 1 1 1 1 1 1 1 1 1 1 1 1 1 1 1 1 1 1 1 0 0 0 0 0 0 0 0 0 0 0 0 0 0 0 0 0 0 0 0 0 0 0 0 0 0 0 0 0 0 0 0 0 0 0 0 0 0 0 0 0 0 0 0 0 0 0 0 0 0 0 0 0 0 0 0 0 0 0 0 "/>
</feComponentTransfer>
<feComposite operator="in" in2="shape" in="coloredNoise1" result="noise1Clipped" />
<feComponentTransfer in="alphaNoise" result="coloredNoise2">
<feFuncA type="discrete" tableValues="0 0 0 0 0 0 0 0 0 0 0 0 0 0 0 0 0 0 0 0 0 0 0 0 0 0 0 0 0 0 0 0 0 0 0 0 0 0 0 0 0 0 0 0 0 0 0 0 0 0 0 0 0 0 0 0 0 0 0 0 1 1 1 1 1 1 1 1 1 1 1 1 1 1 1 1 1 1 1 1 1 1 1 1 1 1 1 1 1 1 1 0 0 0 0 0 0 0 0 0 "/>
</feComponentTransfer>
<feComposite operator="in" in2="shape" in="coloredNoise2" result="noise2Clipped" />
<feFlood flood-color="rgba(0, 0, 0, 0.25)" result="color1Flood" />
<feComposite operator="in" in2="noise1Clipped" in="color1Flood" result="color1" />
<feFlood flood-color="rgba(255, 255, 255, 0.45)" result="color2Flood" />
<feComposite operator="in" in2="noise2Clipped" in="color2Flood" result="color2" />
<feMerge result="effect1_noise_130_45563">
<feMergeNode in="shape" />
<feMergeNode in="color1" />
<feMergeNode in="color2" />
</feMerge>
</filter>
<clipPath id="bgblur_0_130_45563_clip_path" transform="translate(-57.047 -19.1954)"><path d="M75.9092 41.2463C75.9092 40.8433 75.7922 40.4792 75.5581 40.1542C75.3241 39.8292 74.8886 39.5301 74.2515 39.2571C73.6274 38.9711 72.7238 38.711 71.5407 38.477C70.4745 38.243 69.4799 37.9504 68.5568 37.5994C67.6467 37.2353 66.8536 36.7998 66.1775 36.2927C65.5144 35.7857 64.9944 35.1876 64.6173 34.4985C64.2403 33.7964 64.0518 32.9968 64.0518 32.0997C64.0518 31.2156 64.2403 30.3835 64.6173 29.6034C65.0074 28.8233 65.5599 28.1342 66.275 27.5362C67.0031 26.9251 67.8872 26.4505 68.9273 26.1125C69.9805 25.7615 71.1636 25.5859 72.4768 25.5859C74.31 25.5859 75.8832 25.8785 77.1963 26.4635C78.5225 27.0486 79.5366 27.8547 80.2387 28.8818C80.8042 29.6839 81.1461 30.5753 81.2644 31.5562C81.3172 31.9942 80.9537 32.3533 80.5125 32.3533H76.4935C76.0523 32.3533 75.7083 31.9901 75.6029 31.5617C75.5444 31.324 75.458 31.1003 75.3436 30.8906C75.1226 30.4485 74.7716 30.104 74.2905 29.857C73.8224 29.5969 73.2114 29.4669 72.4573 29.4669C71.8332 29.4669 71.2936 29.5774 70.8386 29.7984C70.3835 30.0065 70.0325 30.2925 69.7854 30.6566C69.5514 31.0076 69.4344 31.3976 69.4344 31.8267C69.4344 32.1517 69.4994 32.4443 69.6294 32.7043C69.7724 32.9513 70 33.1789 70.312 33.3869C70.624 33.5949 71.0271 33.7899 71.5212 33.972C72.0282 34.141 72.6523 34.297 73.3934 34.44C74.9146 34.752 76.2732 35.1616 77.4694 35.6687C78.6655 36.1627 79.6146 36.8388 80.3167 37.6969C81.0188 38.542 81.3699 39.6536 81.3699 41.0318C81.3699 41.9679 81.1618 42.826 80.7458 43.6061C80.3297 44.3862 79.7317 45.0688 78.9516 45.6539C78.1715 46.2259 77.2353 46.6745 76.1432 46.9995C75.0641 47.3116 73.8484 47.4676 72.4963 47.4676C70.533 47.4676 68.8688 47.1165 67.5037 46.4145C66.1515 45.7124 65.1244 44.8218 64.4223 43.7426C63.8939 42.9052 63.5681 42.0524 63.4449 41.1844C63.3829 40.7476 63.7463 40.3882 64.1875 40.3882H67.9406C68.3713 40.3882 68.712 40.7335 68.8056 41.1538C68.8999 41.5779 69.064 41.9403 69.2979 42.241C69.6749 42.709 70.1495 43.0471 70.7216 43.2551C71.3066 43.4631 71.9372 43.5671 72.6133 43.5671C73.3414 43.5671 73.946 43.4696 74.427 43.2746C74.9081 43.0666 75.2721 42.7935 75.5191 42.4555C75.7792 42.1044 75.9092 41.7014 75.9092 41.2463Z"/>
</clipPath><clipPath id="bgblur_1_130_45563_clip_path" transform="translate(-38.4649 -19.1954)"><path d="M44.8555 36.7413V36.3317C44.8555 34.7846 45.0765 33.3609 45.5185 32.0607C45.9606 30.7476 46.6042 29.6099 47.4493 28.6478C48.2944 27.6857 49.3345 26.9381 50.5697 26.405C51.8048 25.859 53.222 25.5859 54.8212 25.5859C56.4204 25.5859 57.844 25.859 59.0922 26.405C60.3403 26.9381 61.387 27.6857 62.2321 28.6478C63.0902 29.6099 63.7403 30.7476 64.1823 32.0607C64.6244 33.3609 64.8454 34.7846 64.8454 36.3317V36.7413C64.8454 38.2755 64.6244 39.6991 64.1823 41.0123C63.7403 42.3125 63.0902 43.4501 62.2321 44.4252C61.387 45.3873 60.3468 46.1349 59.1117 46.668C57.8765 47.2011 56.4594 47.4676 54.8602 47.4676C53.261 47.4676 51.8373 47.2011 50.5892 46.668C49.354 46.1349 48.3074 45.3873 47.4493 44.4252C46.6042 43.4501 45.9606 42.3125 45.5185 41.0123C45.0765 39.6991 44.8555 38.2755 44.8555 36.7413ZM50.4721 36.3317V36.7413C50.4721 37.6254 50.5502 38.451 50.7062 39.2181C50.8622 39.9852 51.1092 40.6613 51.4473 41.2463C51.7983 41.8184 52.2534 42.267 52.8124 42.592C53.3715 42.917 54.0541 43.0796 54.8602 43.0796C55.6403 43.0796 56.3099 42.917 56.8689 42.592C57.428 42.267 57.8765 41.8184 58.2146 41.2463C58.5526 40.6613 58.7997 39.9852 58.9557 39.2181C59.1247 38.451 59.2092 37.6254 59.2092 36.7413V36.3317C59.2092 35.4736 59.1247 34.6675 58.9557 33.9134C58.7997 33.1464 58.5461 32.4703 58.1951 31.8852C57.857 31.2871 57.4085 30.8191 56.8494 30.481C56.2904 30.143 55.6143 29.974 54.8212 29.974C54.0281 29.974 53.352 30.143 52.7929 30.481C52.2469 30.8191 51.7983 31.2871 51.4473 31.8852C51.1092 32.4703 50.8622 33.1464 50.7062 33.9134C50.5502 34.6675 50.4721 35.4736 50.4721 36.3317Z"/>
</clipPath><clipPath id="bgblur_2_130_45563_clip_path" transform="translate(-18.7169 -19.1954)"><path d="M25.1074 36.7413V36.3317C25.1074 34.7846 25.3284 33.3609 25.7705 32.0607C26.2126 30.7476 26.8561 29.6099 27.7012 28.6478C28.5463 27.6857 29.5865 26.9381 30.8216 26.405C32.0568 25.859 33.4739 25.5859 35.0731 25.5859C36.6723 25.5859 38.096 25.859 39.3441 26.405C40.5923 26.9381 41.6389 27.6857 42.484 28.6478C43.3421 29.6099 43.9922 30.7476 44.4343 32.0607C44.8763 33.3609 45.0973 34.7846 45.0973 36.3317V36.7413C45.0973 38.2755 44.8763 39.6991 44.4343 41.0123C43.9922 42.3125 43.3421 43.4501 42.484 44.4252C41.6389 45.3873 40.5988 46.1349 39.3636 46.668C38.1285 47.2011 36.7113 47.4676 35.1121 47.4676C33.5129 47.4676 32.0893 47.2011 30.8411 46.668C29.606 46.1349 28.5593 45.3873 27.7012 44.4252C26.8561 43.4501 26.2126 42.3125 25.7705 41.0123C25.3284 39.6991 25.1074 38.2755 25.1074 36.7413ZM30.7241 36.3317V36.7413C30.7241 37.6254 30.8021 38.451 30.9581 39.2181C31.1141 39.9852 31.3612 40.6613 31.6992 41.2463C32.0503 41.8184 32.5053 42.267 33.0644 42.592C33.6235 42.917 34.306 43.0796 35.1121 43.0796C35.8922 43.0796 36.5618 42.917 37.1209 42.592C37.6799 42.267 38.1285 41.8184 38.4665 41.2463C38.8046 40.6613 39.0516 39.9852 39.2076 39.2181C39.3766 38.451 39.4612 37.6254 39.4612 36.7413V36.3317C39.4612 35.4736 39.3766 34.6675 39.2076 33.9134C39.0516 33.1464 38.7981 32.4703 38.447 31.8852C38.109 31.2871 37.6604 30.8191 37.1014 30.481C36.5423 30.143 35.8662 29.974 35.0731 29.974C34.28 29.974 33.604 30.143 33.0449 30.481C32.4988 30.8191 32.0503 31.2871 31.6992 31.8852C31.3612 32.4703 31.1141 33.1464 30.9581 33.9134C30.8021 34.6675 30.7241 35.4736 30.7241 36.3317Z"/>
</clipPath><clipPath id="bgblur_3_130_45563_clip_path" transform="translate(-8.36923 -19.1954)"><path d="M20.3764 30.5785V46.2787C20.3764 46.7199 20.0188 47.0775 19.5776 47.0775H15.5586C15.1174 47.0775 14.7598 46.7199 14.7598 46.2787V26.7748C14.7598 26.3336 15.1174 25.976 15.5586 25.976H19.3016C19.7205 25.976 20.0682 26.2996 20.0983 26.7174L20.3764 30.5785ZM26.1878 25.7003C26.5215 25.7568 26.73 26.0657 26.7236 26.4041L26.6536 30.1429C26.6446 30.623 26.2166 30.9898 25.7377 30.9557C25.7062 30.9534 25.6744 30.9512 25.6421 30.9491C25.265 30.9101 24.9205 30.8906 24.6085 30.8906C23.8154 30.8906 23.1263 30.9946 22.5412 31.2026C21.9691 31.3976 21.4881 31.6902 21.098 32.0802C20.721 32.4703 20.435 32.9448 20.2399 33.5039C20.1246 33.8581 20.0406 34.2435 19.9879 34.6603C19.94 35.039 19.5691 35.3038 19.2045 35.1906C18.962 35.1154 18.7959 34.8909 18.8013 34.6371C18.827 33.4363 18.962 32.324 19.2063 31.3001C19.4793 30.143 19.8759 29.1354 20.3959 28.2773C20.929 27.4192 21.5791 26.7561 22.3462 26.288C23.1133 25.82 23.9909 25.5859 24.979 25.5859C25.291 25.5859 25.6096 25.6119 25.9346 25.6639C26.0234 25.6746 26.1078 25.6867 26.1878 25.7003Z"/>
</clipPath><clipPath id="bgblur_4_130_45563_clip_path" transform="translate(-69.8575 1.57022)"><path d="M88.7197 20.4807C88.7197 20.0777 88.6027 19.7136 88.3687 19.3886C88.1347 19.0635 87.6991 18.7645 87.062 18.4915C86.438 18.2054 85.5343 17.9454 84.3512 17.7114C83.2851 17.4773 82.2905 17.1848 81.3673 16.8338C80.4572 16.4697 79.6641 16.0342 78.9881 15.5271C78.325 15.02 77.8049 14.422 77.4279 13.7329C77.0508 13.0308 76.8623 12.2312 76.8623 11.3341C76.8623 10.45 77.0508 9.61789 77.4279 8.8378C77.8179 8.0577 78.3705 7.36862 79.0856 6.77055C79.8137 6.15947 80.6978 5.68492 81.7379 5.34688C82.791 4.99583 83.9742 4.82031 85.2873 4.82031C87.1205 4.82031 88.6937 5.11285 90.0069 5.69792C91.3331 6.28299 92.3472 7.08909 93.0493 8.11621C93.6148 8.91823 93.9567 9.80969 94.075 10.7906C94.1278 11.2286 93.7642 11.5876 93.3231 11.5876H89.304C88.8629 11.5876 88.5189 11.2244 88.4135 10.796C88.355 10.5584 88.2686 10.3347 88.1542 10.125C87.9331 9.6829 87.5821 9.33836 87.101 9.09133C86.633 8.8313 86.0219 8.70128 85.2678 8.70128C84.6437 8.70128 84.1042 8.8118 83.6491 9.03282C83.1941 9.24085 82.843 9.52688 82.596 9.89093C82.362 10.242 82.245 10.632 82.245 11.0611C82.245 11.3861 82.31 11.6786 82.44 11.9387C82.583 12.1857 82.8105 12.4132 83.1226 12.6213C83.4346 12.8293 83.8376 13.0243 84.3317 13.2063C84.8388 13.3753 85.4628 13.5314 86.2039 13.6744C87.7251 13.9864 89.0838 14.396 90.2799 14.903C91.4761 15.3971 92.4252 16.0732 93.1273 16.9313C93.8294 17.7764 94.1804 18.888 94.1804 20.2662C94.1804 21.2023 93.9724 22.0604 93.5563 22.8405C93.1403 23.6206 92.5422 24.3032 91.7621 24.8882C90.982 25.4603 90.0459 25.9089 88.9538 26.2339C87.8746 26.5459 86.659 26.702 85.3068 26.702C83.3436 26.702 81.6794 26.3509 80.3142 25.6488C78.9621 24.9468 77.9349 24.0561 77.2328 22.977C76.7044 22.1396 76.3786 21.2868 76.2554 20.4188C76.1934 19.982 76.5569 19.6226 76.998 19.6226H80.7512C81.1818 19.6226 81.5226 19.9678 81.6161 20.3882C81.7105 20.8123 81.8746 21.1747 82.1084 21.4753C82.4855 21.9434 82.96 22.2814 83.5321 22.4895C84.1172 22.6975 84.7478 22.8015 85.4238 22.8015C86.1519 22.8015 86.7565 22.704 87.2376 22.509C87.7186 22.3009 88.0827 22.0279 88.3297 21.6899C88.5897 21.3388 88.7197 20.9358 88.7197 20.4807Z"/>
</clipPath><clipPath id="bgblur_5_130_45563_clip_path" transform="translate(-53.4454 1.57022)"><path d="M72.1224 21.5533V12.1532C72.1224 11.4771 72.0119 10.8985 71.7909 10.4175C71.5699 9.92343 71.2253 9.53988 70.7573 9.26685C70.3022 8.99382 69.7106 8.8573 68.9825 8.8573C68.3585 8.8573 67.8189 8.96782 67.3638 9.18884C66.9088 9.39687 66.5578 9.7024 66.3107 10.1055C66.195 10.2882 66.1063 10.4867 66.0448 10.7008C65.923 11.1248 65.5825 11.4901 65.1414 11.4901H61.1223C60.6811 11.4901 60.3171 11.1306 60.3798 10.694C60.4673 10.0855 60.6565 9.49925 60.9476 8.93531C61.3636 8.12921 61.9682 7.42063 62.7613 6.80955C63.5544 6.18548 64.497 5.69792 65.5891 5.34688C66.6943 4.99583 67.9294 4.82031 69.2946 4.82031C70.9328 4.82031 72.389 5.09335 73.6631 5.63941C74.9373 6.18548 75.9384 7.00458 76.6665 8.09671C77.4076 9.18884 77.7781 10.554 77.7781 12.1922V21.2218C77.7781 22.3789 77.8496 23.3281 77.9926 24.0691C78.1307 24.7721 78.3294 25.3903 78.5887 25.9236C78.6069 25.961 78.6167 26.0021 78.6167 26.0437C78.6167 26.1918 78.4966 26.3119 78.3485 26.3119H73.4454C73.1375 26.3119 72.8532 26.1363 72.7459 25.8478C72.5669 25.3669 72.4241 24.8066 72.3174 24.1667C72.1874 23.2956 72.1224 22.4244 72.1224 21.5533ZM72.0647 13.4599C72.5059 13.4599 72.8635 13.8175 72.8635 14.2587V18V17.4376C72.8635 16.9964 72.5059 16.6387 72.0647 16.6387H69.7626C69.0216 16.6387 68.378 16.7233 67.8319 16.8923C67.2858 17.0613 66.8373 17.3018 66.4862 17.6139C66.1352 17.9129 65.8752 18.2639 65.7061 18.667C65.5501 19.07 65.4721 19.5121 65.4721 19.9932C65.4721 20.4742 65.5826 20.9098 65.8037 21.2998C66.0247 21.6769 66.3432 21.9759 66.7593 22.1969C67.1753 22.4049 67.6629 22.509 68.222 22.509C69.0671 22.509 69.8016 22.3399 70.4257 22.0019C71.0498 21.6639 71.5309 21.2478 71.8689 20.7537C72.1336 20.3812 72.9815 20.259 73.2232 20.6469L73.7023 21.4161C73.8249 21.6129 73.8494 21.8569 73.7551 22.0688C73.565 22.4959 73.3263 22.9352 73.039 23.3866C72.688 23.9586 72.2394 24.4982 71.6934 25.0053C71.1473 25.4993 70.4907 25.9089 69.7236 26.2339C68.9565 26.5459 68.0464 26.702 66.9933 26.702C65.6541 26.702 64.4385 26.4354 63.3464 25.9024C62.2672 25.3563 61.4091 24.6087 60.7721 23.6596C60.148 22.6975 59.8359 21.6053 59.8359 20.3832C59.8359 19.2781 60.044 18.2964 60.46 17.4383C60.8761 16.5802 61.4871 15.8587 62.2932 15.2736C63.1123 14.6755 64.133 14.227 65.3551 13.9279C66.5773 13.6159 67.9944 13.4599 69.6066 13.4599H72.0647Z"/>
</clipPath><clipPath id="bgblur_6_130_45563_clip_path" transform="translate(-23.5216 1.57022)"><path d="M35.5483 9.57889V25.5131C35.5483 25.9543 35.1906 26.3119 34.7495 26.3119H30.7109C30.2698 26.3119 29.9121 25.9543 29.9121 25.5131V6.00918C29.9121 5.568 30.2698 5.21036 30.7109 5.21036H34.46C34.8764 5.21036 35.2229 5.53017 35.2563 5.94519L35.5483 9.57889ZM34.7957 14.2406C34.7647 14.6703 34.4189 15.02 33.9881 15.02C33.5573 15.02 33.206 14.6706 33.225 14.2401C33.2767 13.0692 33.4465 11.977 33.7346 10.9636C34.0986 9.71541 34.6252 8.63627 35.3143 7.72616C36.0163 6.80305 36.881 6.08797 37.9081 5.5809C38.9352 5.07384 40.1248 4.82031 41.477 4.82031C42.4131 4.82031 43.2712 4.96333 44.0513 5.24936C44.8314 5.5224 45.501 5.95795 46.0601 6.55602C46.6321 7.14109 47.0742 7.90819 47.3862 8.8573C47.6983 9.79342 47.8543 10.9181 47.8543 12.2312V25.5131C47.8543 25.9543 47.4966 26.3119 47.0555 26.3119H43.0364C42.5952 26.3119 42.2376 25.9543 42.2376 25.5131V12.8553C42.2376 11.8932 42.1076 11.1521 41.8476 10.632C41.5875 10.112 41.217 9.74791 40.7359 9.53988C40.2679 9.33186 39.7023 9.22785 39.0392 9.22785C38.3111 9.22785 37.674 9.37736 37.128 9.6764C36.5949 9.97544 36.1529 10.3915 35.8018 10.9246C35.4508 11.4446 35.1907 12.0557 35.0217 12.7578C34.9084 13.2286 34.833 13.7229 34.7957 14.2406ZM47.3555 13.6728C47.3229 14.074 47.0283 14.4143 46.6289 14.4647L46.2178 14.5166C45.7407 14.5768 45.317 14.2046 45.3441 13.7245C45.4026 12.6867 45.5632 11.7079 45.826 10.788C46.1771 9.60489 46.6906 8.56477 47.3667 7.66766C48.0558 6.77055 48.9074 6.07496 49.9215 5.5809C50.9357 5.07384 52.1058 4.82031 53.432 4.82031C54.4461 4.82031 55.3692 4.96983 56.2013 5.26887C57.0334 5.5549 57.742 6.01646 58.3271 6.65353C58.9251 7.27761 59.3802 8.09671 59.6922 9.11083C60.0173 10.125 60.1798 11.3666 60.1798 12.8358V25.5131C60.1798 25.9543 59.8221 26.3119 59.381 26.3119H55.3424C54.9012 26.3119 54.5436 25.9543 54.5436 25.5131V12.8358C54.5436 11.8607 54.4136 11.1196 54.1535 10.6125C53.9065 10.0925 53.5425 9.73491 53.0614 9.53988C52.5934 9.33186 52.0343 9.22785 51.3842 9.22785C50.7081 9.22785 50.1166 9.36436 49.6095 9.6374C49.1024 9.89743 48.6799 10.2615 48.3418 10.7295C48.0038 11.1976 47.7503 11.7437 47.5812 12.3677C47.4682 12.7766 47.3929 13.2116 47.3555 13.6728Z"/>
</clipPath><clipPath id="bgblur_7_130_45563_clip_path" transform="translate(-3.89267 1.57022)"><path d="M10.2832 15.9757V15.5661C10.2832 14.0189 10.5042 12.5953 10.9463 11.2951C11.3883 9.98194 12.0319 8.8443 12.877 7.88218C13.7221 6.92007 14.7622 6.17248 15.9974 5.63941C17.2325 5.09335 18.6497 4.82031 20.2489 4.82031C21.8481 4.82031 23.2718 5.09335 24.5199 5.63941C25.7681 6.17248 26.8147 6.92007 27.6598 7.88218C28.5179 8.8443 29.168 9.98194 29.61 11.2951C30.0521 12.5953 30.2731 14.0189 30.2731 15.5661V15.9757C30.2731 17.5099 30.0521 18.9335 29.61 20.2467C29.168 21.5468 28.5179 22.6845 27.6598 23.6596C26.8147 24.6217 25.7746 25.3693 24.5394 25.9024C23.3043 26.4354 21.8871 26.702 20.2879 26.702C18.6887 26.702 17.265 26.4354 16.0169 25.9024C14.7817 25.3693 13.7351 24.6217 12.877 23.6596C12.0319 22.6845 11.3883 21.5468 10.9463 20.2467C10.5042 18.9335 10.2832 17.5099 10.2832 15.9757ZM15.8999 15.5661V15.9757C15.8999 16.8598 15.9779 17.6854 16.1339 18.4525C16.2899 19.2196 16.537 19.8956 16.875 20.4807C17.226 21.0528 17.6811 21.5013 18.2402 21.8264C18.7992 22.1514 19.4818 22.3139 20.2879 22.3139C21.068 22.3139 21.7376 22.1514 22.2967 21.8264C22.8557 21.5013 23.3043 21.0528 23.6423 20.4807C23.9804 19.8956 24.2274 19.2196 24.3834 18.4525C24.5524 17.6854 24.6369 16.8598 24.6369 15.9757V15.5661C24.6369 14.708 24.5524 13.9019 24.3834 13.1478C24.2274 12.3807 23.9739 11.7046 23.6228 11.1196C23.2848 10.5215 22.8362 10.0534 22.2772 9.71541C21.7181 9.37736 21.042 9.20834 20.2489 9.20834C19.4558 9.20834 18.7797 9.37736 18.2207 9.71541C17.6746 10.0534 17.226 10.5215 16.875 11.1196C16.537 11.7046 16.2899 12.3807 16.1339 13.1478C15.9779 13.9019 15.8999 14.708 15.8999 15.5661Z"/>
</clipPath><clipPath id="bgblur_8_130_45563_clip_path" transform="translate(6.39053 6.39053)"><path d="M11.4877 5.20713C11.9288 5.20713 12.2865 5.56477 12.2865 6.00595V8.3868C12.2865 8.82797 11.9288 9.18561 11.4877 9.18561H0.798816C0.357641 9.18561 0 8.82797 0 8.3868V6.00595C0 5.56477 0.357642 5.20713 0.798817 5.20713H11.4877ZM3.04237 0.798817C3.04237 0.357642 3.40001 0 3.84119 0H7.86023C8.30141 0 8.65905 0.357642 8.65905 0.798817V19.9509C8.65905 20.562 8.73706 21.03 8.89308 21.3551C9.0621 21.6801 9.30913 21.9077 9.63417 22.0377C9.95921 22.1547 10.3688 22.2132 10.8628 22.2132C11.2139 22.2132 11.5259 22.2002 11.7989 22.1742C12.1744 22.123 12.5222 22.4094 12.524 22.7883L12.5373 25.6081C12.5389 25.9557 12.3162 26.2675 11.9796 26.3542C11.6615 26.4362 11.3282 26.5055 10.9798 26.5622C10.4208 26.6532 9.80319 26.6987 9.12711 26.6987C7.89196 26.6987 6.81283 26.4972 5.88971 26.0942C4.9796 25.6781 4.27752 25.015 3.78346 24.1049C3.2894 23.1948 3.04237 21.9987 3.04237 20.5165V0.798817Z"/>
</clipPath></defs>
</svg>
