<svg width="245" height="123" viewBox="0 0 245 123" fill="none" xmlns="http://www.w3.org/2000/svg">
<g filter="url(#filter0_n_130_45563)">
<foreignObject x="147.822" y="49.7377" width="79.5852" height="89.8215"><div xmlns="http://www.w3.org/1999/xhtml" style="backdrop-filter:blur(8.28px);clip-path:url(#bgblur_0_130_45563_clip_path);height:100%;width:100%"></div></foreignObject><path data-figma-bg-blur-radius="16.5592" d="M196.697 106.876C196.697 105.832 196.394 104.888 195.788 104.046C195.181 103.204 194.052 102.429 192.402 101.722C190.785 100.98 188.443 100.307 185.377 99.7003C182.615 99.0938 180.038 98.3358 177.646 97.4262C175.287 96.4829 173.232 95.3543 171.48 94.0404C169.762 92.7265 168.415 91.1768 167.438 89.3912C166.461 87.572 165.972 85.5 165.972 83.1754C165.972 80.8845 166.461 78.7284 167.438 76.707C168.448 74.6856 169.88 72.9001 171.733 71.3503C173.62 69.7669 175.911 68.5372 178.606 67.6613C181.335 66.7517 184.4 66.2969 187.803 66.2969C192.553 66.2969 196.63 67.0549 200.032 68.5709C203.469 70.087 206.097 72.1757 207.916 74.8372C209.381 76.9154 210.267 79.2254 210.574 81.7671C210.71 82.9021 209.768 83.8324 208.625 83.8324H198.211C197.068 83.8324 196.177 82.8912 195.904 81.7812C195.752 81.1653 195.528 80.5857 195.232 80.0423C194.659 78.8968 193.749 78.0041 192.503 77.364C191.29 76.6902 189.707 76.3533 187.753 76.3533C186.135 76.3533 184.737 76.6396 183.558 77.2124C182.379 77.7514 181.469 78.4926 180.829 79.4359C180.223 80.3455 179.92 81.3562 179.92 82.468C179.92 83.3102 180.088 84.0682 180.425 84.742C180.796 85.3821 181.385 85.9717 182.194 86.5107C183.002 87.0498 184.047 87.5551 185.327 88.0268C186.641 88.4647 188.258 88.869 190.178 89.2396C194.12 90.0481 197.64 91.1094 200.74 92.4233C203.839 93.7035 206.299 95.4554 208.118 97.6789C209.937 99.8687 210.847 102.749 210.847 106.32C210.847 108.746 210.308 110.969 209.23 112.991C208.152 115.012 206.602 116.781 204.581 118.297C202.559 119.779 200.133 120.942 197.304 121.784C194.507 122.592 191.357 122.997 187.854 122.997C182.766 122.997 178.454 122.087 174.917 120.268C171.413 118.449 168.751 116.141 166.932 113.345C165.563 111.175 164.719 108.965 164.4 106.716C164.239 105.584 165.181 104.653 166.324 104.653H176.049C177.165 104.653 178.048 105.547 178.29 106.636C178.535 107.735 178.96 108.674 179.566 109.453C180.543 110.666 181.773 111.542 183.255 112.081C184.771 112.62 186.405 112.89 188.157 112.89C190.043 112.89 191.61 112.637 192.857 112.132C194.103 111.593 195.046 110.885 195.686 110.009C196.36 109.1 196.697 108.055 196.697 106.876Z" fill="#2D2D30"/>
<foreignObject x="99.6713" y="49.7377" width="84.9172" height="89.8215"><div xmlns="http://www.w3.org/1999/xhtml" style="backdrop-filter:blur(8.28px);clip-path:url(#bgblur_1_130_45563_clip_path);height:100%;width:100%"></div></foreignObject><path data-figma-bg-blur-radius="16.5592" d="M116.23 95.2027V94.1415C116.23 90.1324 116.803 86.4433 117.949 83.0744C119.094 79.6717 120.762 76.7239 122.952 74.2308C125.141 71.7378 127.837 69.8006 131.037 68.4193C134.238 67.0044 137.91 66.2969 142.054 66.2969C146.197 66.2969 149.887 67.0044 153.121 68.4193C156.355 69.8006 159.067 71.7378 161.257 74.2308C163.48 76.7239 165.165 79.6717 166.31 83.0744C167.456 86.4433 168.028 90.1324 168.028 94.1415V95.2027C168.028 99.1781 167.456 102.867 166.31 106.27C165.165 109.639 163.48 112.587 161.257 115.113C159.067 117.606 156.372 119.544 153.171 120.925C149.971 122.306 146.299 122.997 142.155 122.997C138.011 122.997 134.322 122.306 131.088 120.925C127.887 119.544 125.175 117.606 122.952 115.113C120.762 112.587 119.094 109.639 117.949 106.27C116.803 102.867 116.23 99.1781 116.23 95.2027ZM130.784 94.1415V95.2027C130.784 97.4936 130.987 99.6329 131.391 101.621C131.795 103.608 132.435 105.36 133.311 106.876C134.221 108.359 135.4 109.521 136.849 110.363C138.297 111.205 140.066 111.626 142.155 111.626C144.176 111.626 145.911 111.205 147.36 110.363C148.808 109.521 149.971 108.359 150.847 106.876C151.723 105.36 152.363 103.608 152.767 101.621C153.205 99.6329 153.424 97.4936 153.424 95.2027V94.1415C153.424 91.9179 153.205 89.8292 152.767 87.8752C152.363 85.8875 151.706 84.1356 150.796 82.6196C149.92 81.0698 148.758 79.857 147.309 78.9811C145.861 78.1051 144.109 77.6672 142.054 77.6672C139.999 77.6672 138.247 78.1051 136.798 78.9811C135.383 79.857 134.221 81.0698 133.311 82.6196C132.435 84.1356 131.795 85.8875 131.391 87.8752C130.987 89.8292 130.784 91.9179 130.784 94.1415Z" fill="#2D2D30"/>
<foreignObject x="48.4994" y="49.7377" width="84.9172" height="89.8215"><div xmlns="http://www.w3.org/1999/xhtml" style="backdrop-filter:blur(8.28px);clip-path:url(#bgblur_2_130_45563_clip_path);height:100%;width:100%"></div></foreignObject><path data-figma-bg-blur-radius="16.5592" d="M65.0586 95.2027V94.1415C65.0586 90.1324 65.6313 86.4433 66.7768 83.0744C67.9222 79.6717 69.5899 76.7239 71.7797 74.2308C73.9695 71.7378 76.6647 69.8006 79.8652 68.4193C83.0658 67.0044 86.7379 66.2969 90.8818 66.2969C95.0256 66.2969 98.7147 67.0044 101.949 68.4193C105.183 69.8006 107.895 71.7378 110.085 74.2308C112.308 76.7239 113.993 79.6717 115.138 83.0744C116.284 86.4433 116.857 90.1324 116.857 94.1415V95.2027C116.857 99.1781 116.284 102.867 115.138 106.27C113.993 109.639 112.308 112.587 110.085 115.113C107.895 117.606 105.2 119.544 101.999 120.925C98.7989 122.306 95.1267 122.997 90.9829 122.997C86.839 122.997 83.15 122.306 79.9158 120.925C76.7152 119.544 74.0032 117.606 71.7797 115.113C69.5899 112.587 67.9222 109.639 66.7768 106.27C65.6313 102.867 65.0586 99.1781 65.0586 95.2027ZM79.6126 94.1415V95.2027C79.6126 97.4936 79.8147 99.6329 80.219 101.621C80.6233 103.608 81.2634 105.36 82.1393 106.876C83.0489 108.359 84.2281 109.521 85.6767 110.363C87.1254 111.205 88.8941 111.626 90.9829 111.626C93.0042 111.626 94.7393 111.205 96.1879 110.363C97.6366 109.521 98.7989 108.359 99.6748 106.876C100.551 105.36 101.191 103.608 101.595 101.621C102.033 99.6329 102.252 97.4936 102.252 95.2027V94.1415C102.252 91.9179 102.033 89.8292 101.595 87.8752C101.191 85.8875 100.534 84.1356 99.6243 82.6196C98.7483 81.0698 97.586 79.857 96.1374 78.9811C94.6887 78.1051 92.9369 77.6672 90.8818 77.6672C88.8267 77.6672 87.0748 78.1051 85.6262 78.9811C84.2112 79.857 83.0489 81.0698 82.1393 82.6196C81.2634 84.1356 80.6233 85.8875 80.219 87.8752C79.8147 89.8292 79.6126 91.9179 79.6126 94.1415Z" fill="#2D2D30"/>
<foreignObject x="21.6869" y="49.7377" width="64.1203" height="88.8059"><div xmlns="http://www.w3.org/1999/xhtml" style="backdrop-filter:blur(8.28px);clip-path:url(#bgblur_3_130_45563_clip_path);height:100%;width:100%"></div></foreignObject><path data-figma-bg-blur-radius="16.5592" d="M52.8001 79.2337V119.916C52.8001 121.059 51.8733 121.986 50.7302 121.986H40.316C39.1728 121.986 38.2461 121.059 38.2461 119.916V69.3775C38.2461 68.2343 39.1728 67.3076 40.316 67.3076H50.0148C51.1003 67.3076 52.0014 68.1461 52.0794 69.2287L52.8001 79.2337ZM67.8585 66.5931C68.7232 66.7396 69.2634 67.54 69.247 68.4169L69.0655 78.105C69.0422 79.3489 67.9331 80.2993 66.6922 80.211C66.6106 80.2052 66.528 80.1995 66.4444 80.1939C65.4674 80.0928 64.5746 80.0423 63.7661 80.0423C61.711 80.0423 59.9254 80.3118 58.4094 80.8508C56.9271 81.3562 55.6805 82.1142 54.6698 83.1249C53.6928 84.1356 52.9517 85.3653 52.4463 86.8139C52.1475 87.7316 51.9299 88.7305 51.7933 89.8104C51.6692 90.7917 50.708 91.4778 49.7633 91.1846C49.135 90.9896 48.7044 90.4081 48.7185 89.7503C48.7851 86.6387 49.1349 83.7565 49.768 81.1035C50.4755 78.1051 51.503 75.4942 52.8506 73.2707C54.2319 71.0471 55.9164 69.329 57.9041 68.1161C59.8918 66.9033 62.1658 66.2969 64.7262 66.2969C65.5348 66.2969 66.3602 66.3643 67.2024 66.499C67.4324 66.5266 67.6511 66.558 67.8585 66.5931Z" fill="#2D2D30"/>
<foreignObject x="181.015" y="-4.067" width="79.5852" height="89.8215"><div xmlns="http://www.w3.org/1999/xhtml" style="backdrop-filter:blur(8.28px);clip-path:url(#bgblur_4_130_45563_clip_path);height:100%;width:100%"></div></foreignObject><path data-figma-bg-blur-radius="16.5592" d="M229.89 53.0715C229.89 52.0271 229.587 51.0838 228.981 50.2416C228.374 49.3993 227.246 48.6244 225.595 47.917C223.978 47.1758 221.637 46.502 218.571 45.8956C215.808 45.2892 213.231 44.5311 210.839 43.6215C208.481 42.6782 206.426 41.5496 204.674 40.2357C202.956 38.9218 201.608 37.3721 200.631 35.5865C199.654 33.7673 199.165 31.6953 199.165 29.3708C199.165 27.0798 199.654 24.9237 200.631 22.9023C201.642 20.8809 203.073 19.0954 204.926 17.5456C206.813 15.9622 209.104 14.7326 211.799 13.8566C214.528 12.947 217.594 12.4922 220.996 12.4922C225.747 12.4922 229.823 13.2502 233.226 14.7662C236.662 16.2823 239.29 18.371 241.109 21.0325C242.575 23.1107 243.461 25.4207 243.767 27.9624C243.904 29.0974 242.962 30.0277 241.819 30.0277H231.405C230.261 30.0277 229.37 29.0866 229.097 27.9765C228.945 27.3606 228.721 26.781 228.425 26.2376C227.852 25.0922 226.943 24.1994 225.696 23.5593C224.483 22.8855 222.9 22.5486 220.946 22.5486C219.329 22.5486 217.931 22.8349 216.751 23.4077C215.572 23.9467 214.663 24.6879 214.023 25.6312C213.416 26.5408 213.113 27.5515 213.113 28.6633C213.113 29.5055 213.281 30.2635 213.618 30.9373C213.989 31.5774 214.579 32.167 215.387 32.706C216.196 33.2451 217.24 33.7504 218.52 34.2221C219.834 34.66 221.451 35.0643 223.372 35.4349C227.313 36.2435 230.834 37.3047 233.933 38.6186C237.033 39.8988 239.492 41.6507 241.311 43.8742C243.131 46.064 244.04 48.9445 244.04 52.5156C244.04 54.9413 243.501 57.1648 242.423 59.1862C241.345 61.2076 239.795 62.9763 237.774 64.4923C235.753 65.9747 233.327 67.137 230.497 67.9792C227.701 68.7878 224.551 69.192 221.047 69.192C215.96 69.192 211.647 68.2824 208.11 66.4632C204.606 64.6439 201.945 62.3362 200.126 59.5399C198.756 57.3699 197.912 55.1603 197.593 52.911C197.432 51.7792 198.374 50.848 199.517 50.848H209.242C210.358 50.848 211.241 51.7425 211.484 52.8318C211.728 53.9306 212.153 54.8696 212.759 55.6488C213.736 56.8616 214.966 57.7375 216.448 58.2766C217.964 58.8156 219.598 59.0851 221.35 59.0851C223.237 59.0851 224.803 58.8324 226.05 58.3271C227.296 57.7881 228.24 57.0806 228.88 56.2046C229.554 55.295 229.89 54.2506 229.89 53.0715Z" fill="#2D2D30"/>
<foreignObject x="138.49" y="-4.067" width="81.7824" height="89.8215"><div xmlns="http://www.w3.org/1999/xhtml" style="backdrop-filter:blur(8.28px);clip-path:url(#bgblur_5_130_45563_clip_path);height:100%;width:100%"></div></foreignObject><path data-figma-bg-blur-radius="16.5592" d="M186.886 55.8509V31.4932C186.886 29.7413 186.599 28.2421 186.027 26.9956C185.454 25.7154 184.561 24.7216 183.348 24.0141C182.169 23.3066 180.636 22.9529 178.75 22.9529C177.132 22.9529 175.734 23.2392 174.555 23.8119C173.376 24.351 172.466 25.1427 171.826 26.1871C171.526 26.6606 171.297 27.1749 171.137 27.7298C170.822 28.8285 169.939 29.775 168.796 29.775H158.382C157.239 29.775 156.296 28.8435 156.458 27.712C156.685 26.1353 157.175 24.6163 157.929 23.155C159.007 21.0662 160.574 19.2301 162.629 17.6467C164.684 16.0296 167.127 14.7662 169.957 13.8566C172.82 12.947 176.021 12.4922 179.558 12.4922C183.803 12.4922 187.576 13.1997 190.878 14.6146C194.179 16.0296 196.774 18.1521 198.66 20.982C200.581 23.8119 201.541 27.3494 201.541 31.5943V54.9918C201.541 57.9902 201.726 60.4495 202.097 62.3699C202.454 64.1915 202.969 65.7932 203.641 67.1751C203.688 67.2722 203.714 67.3784 203.714 67.4863C203.714 67.8702 203.402 68.1813 203.019 68.1813H190.314C189.516 68.1813 188.779 67.7263 188.501 66.9787C188.037 65.7327 187.667 64.2807 187.391 62.6225C187.054 60.3653 186.886 58.1081 186.886 55.8509ZM186.736 34.879C187.879 34.879 188.806 35.8058 188.806 36.9489V46.6435V45.1861C188.806 44.0429 187.879 43.1162 186.736 43.1162H180.771C178.851 43.1162 177.183 43.3352 175.768 43.7731C174.353 44.2111 173.191 44.8343 172.281 45.6429C171.372 46.4178 170.698 47.3274 170.26 48.3718C169.855 49.4162 169.653 50.5616 169.653 51.8081C169.653 53.0546 169.94 54.1833 170.512 55.1939C171.085 56.1709 171.911 56.9458 172.989 57.5185C174.067 58.0576 175.33 58.3271 176.779 58.3271C178.969 58.3271 180.872 57.8891 182.489 57.0132C184.106 56.1373 185.353 55.0592 186.229 53.779C186.915 52.8136 189.112 52.4971 189.738 53.5022L190.979 55.4953C191.297 56.0053 191.361 56.6376 191.116 57.1865C190.624 58.2933 190.005 59.4315 189.261 60.6011C188.351 62.0835 187.189 63.4816 185.774 64.7955C184.359 66.0757 182.658 67.137 180.67 67.9792C178.682 68.7878 176.324 69.192 173.595 69.192C170.125 69.192 166.975 68.5014 164.145 67.1201C161.349 65.7051 159.125 63.768 157.474 61.3086C155.857 58.8156 155.049 55.9857 155.049 52.8188C155.049 49.9552 155.588 47.4116 156.666 45.1881C157.744 42.9646 159.327 41.0948 161.416 39.5787C163.539 38.029 166.183 36.8667 169.35 36.0919C172.517 35.2833 176.189 34.879 180.367 34.879H186.736Z" fill="#2D2D30"/>
<foreignObject x="60.9506" y="-4.067" width="111.548" height="88.8059"><div xmlns="http://www.w3.org/1999/xhtml" style="backdrop-filter:blur(8.28px);clip-path:url(#bgblur_6_130_45563_clip_path);height:100%;width:100%"></div></foreignObject><path data-figma-bg-blur-radius="16.5592" d="M92.1143 24.8226V66.1114C92.1143 67.2546 91.1875 68.1813 90.0444 68.1813H79.5797C78.4365 68.1813 77.5098 67.2546 77.5098 66.1114V15.5728C77.5098 14.4296 78.4365 13.5029 79.5797 13.5029H89.2944C90.3733 13.5029 91.2712 14.3316 91.3577 15.407L92.1143 24.8226ZM90.1641 36.902C90.0838 38.0155 89.1879 38.9218 88.0715 38.9218C86.9551 38.9218 86.0448 38.0162 86.0941 36.9009C86.2281 33.8667 86.6682 31.0366 87.4146 28.4106C88.3579 25.1764 89.7223 22.3801 91.5079 20.0218C93.3271 17.6299 95.5675 15.7769 98.229 14.463C100.89 13.1491 103.973 12.4922 107.477 12.4922C109.902 12.4922 112.126 12.8628 114.147 13.6039C116.169 14.3114 117.904 15.44 119.352 16.9898C120.835 18.5058 121.98 20.4935 122.789 22.9529C123.597 25.3785 124.002 28.2927 124.002 31.6953V66.1114C124.002 67.2546 123.075 68.1813 121.932 68.1813H111.518C110.374 68.1813 109.448 67.2546 109.448 66.1114V33.3125C109.448 30.8194 109.111 28.8991 108.437 27.5515C107.763 26.2039 106.803 25.2606 105.556 24.7216C104.344 24.1825 102.878 23.913 101.16 23.913C99.2733 23.913 97.6225 24.3004 96.2076 25.0753C94.8263 25.8502 93.6808 26.9282 92.7712 28.3095C91.8616 29.6571 91.1878 31.2405 90.7498 33.0598C90.4561 34.2799 90.2609 35.5607 90.1641 36.902ZM122.709 35.4309C122.625 36.4704 121.861 37.3521 120.826 37.4827L119.761 37.6171C118.525 37.7732 117.427 36.8087 117.497 35.5647C117.649 32.8756 118.065 30.3393 118.746 27.9558C119.656 24.89 120.986 22.1948 122.738 19.8702C124.524 17.5456 126.73 15.7432 129.358 14.463C131.986 13.1491 135.018 12.4922 138.455 12.4922C141.082 12.4922 143.474 12.8796 145.63 13.6545C147.787 14.3957 149.623 15.5916 151.139 17.2424C152.688 18.8596 153.868 20.982 154.676 23.6098C155.518 26.2376 155.939 29.455 155.939 33.2619V66.1114C155.939 67.2546 155.013 68.1813 153.87 68.1813H143.405C142.262 68.1813 141.335 67.2546 141.335 66.1114V33.2619C141.335 30.7352 140.998 28.8149 140.324 27.501C139.684 26.1534 138.741 25.2269 137.494 24.7216C136.282 24.1825 134.833 23.913 133.148 23.913C131.397 23.913 129.864 24.2668 128.55 24.9742C127.236 25.648 126.141 26.5913 125.265 27.8042C124.389 29.017 123.732 30.432 123.294 32.0491C123.001 33.1085 122.806 34.2358 122.709 35.4309Z" fill="#2D2D30"/>
<foreignObject x="10.0873" y="-4.067" width="84.9172" height="89.8215"><div xmlns="http://www.w3.org/1999/xhtml" style="backdrop-filter:blur(8.28px);clip-path:url(#bgblur_7_130_45563_clip_path);height:100%;width:100%"></div></foreignObject><path data-figma-bg-blur-radius="16.5592" d="M26.6465 41.398V40.3368C26.6465 36.3277 27.2192 32.6387 28.3647 29.2697C29.5101 25.867 31.1778 22.9192 33.3676 20.4261C35.5574 17.9331 38.2526 15.9959 41.4531 14.6146C44.6537 13.1997 48.3258 12.4922 52.4697 12.4922C56.6135 12.4922 60.3025 13.1997 63.5368 14.6146C66.771 15.9959 69.483 17.9331 71.6728 20.4261C73.8964 22.9192 75.5808 25.867 76.7263 29.2697C77.8717 32.6387 78.4445 36.3277 78.4445 40.3368V41.398C78.4445 45.3734 77.8717 49.0624 76.7263 52.4651C75.5808 55.834 73.8964 58.7819 71.6728 61.3086C69.483 63.8017 66.7878 65.7388 63.5873 67.1201C60.3868 68.5014 56.7146 69.192 52.5707 69.192C48.4269 69.192 44.7379 68.5014 41.5037 67.1201C38.3031 65.7388 35.5911 63.8017 33.3676 61.3086C31.1778 58.7819 29.5101 55.834 28.3647 52.4651C27.2192 49.0624 26.6465 45.3734 26.6465 41.398ZM41.2005 40.3368V41.398C41.2005 43.6889 41.4026 45.8282 41.8069 47.8159C42.2111 49.8036 42.8513 51.5555 43.7272 53.0715C44.6368 54.5538 45.816 55.7161 47.2646 56.5584C48.7133 57.4006 50.482 57.8217 52.5707 57.8217C54.5921 57.8217 56.3272 57.4006 57.7758 56.5584C59.2245 55.7161 60.3868 54.5538 61.2627 53.0715C62.1386 51.5555 62.7787 49.8036 63.183 47.8159C63.621 45.8282 63.84 43.6889 63.84 41.398V40.3368C63.84 38.1132 63.621 36.0245 63.183 34.0705C62.7787 32.0828 62.1218 30.3309 61.2122 28.8149C60.3362 27.2651 59.1739 26.0523 57.7253 25.1764C56.2766 24.3004 54.5248 23.8625 52.4697 23.8625C50.4146 23.8625 48.6627 24.3004 47.2141 25.1764C45.7991 26.0523 44.6368 27.2651 43.7272 28.8149C42.8513 30.3309 42.2111 32.0828 41.8069 34.0705C41.4026 36.0245 41.2005 38.1132 41.2005 40.3368Z" fill="#2D2D30"/>
<foreignObject x="-16.5592" y="-16.5592" width="65.6047" height="102.298"><div xmlns="http://www.w3.org/1999/xhtml" style="backdrop-filter:blur(8.28px);clip-path:url(#bgblur_8_130_45563_clip_path);height:100%;width:100%"></div></foreignObject><path data-figma-bg-blur-radius="16.5592" d="M29.7669 13.4927C30.9101 13.4927 31.8368 14.4195 31.8368 15.5626V21.7319C31.8368 22.8751 30.9101 23.8018 29.7669 23.8018H2.0699C0.926726 23.8018 0 22.8751 0 21.7319V15.5626C0 14.4195 0.926725 13.4927 2.0699 13.4927H29.7669ZM7.8834 2.0699C7.8834 0.926722 8.81013 0 9.9533 0H20.3675C21.5106 0 22.4374 0.926725 22.4374 2.0699V51.6969C22.4374 53.2803 22.6395 54.4932 23.0438 55.3354C23.4818 56.1777 24.1219 56.7672 24.9641 57.1041C25.8063 57.4073 26.8676 57.5589 28.1478 57.5589C29.0574 57.5589 29.866 57.5252 30.5734 57.4579C31.5463 57.3252 32.4475 58.0673 32.4522 59.0491L32.4866 66.3558C32.4909 67.2566 31.9139 68.0644 31.0416 68.2891C30.2173 68.5015 29.3538 68.6812 28.451 68.8282C27.0023 69.064 25.4021 69.1819 23.6502 69.1819C20.4497 69.1819 17.6534 68.6597 15.2615 67.6153C12.9032 66.5373 11.0839 64.8191 9.80372 62.4608C8.52351 60.1025 7.8834 57.0031 7.8834 53.1624V2.0699Z" fill="#2D2D30"/>
</g>
<defs>
<filter id="filter0_n_130_45563" x="0" y="0" width="244.041" height="123" filterUnits="userSpaceOnUse" color-interpolation-filters="sRGB">
<feFlood flood-opacity="0" result="BackgroundImageFix"/>
<feBlend mode="normal" in="SourceGraphic" in2="BackgroundImageFix" result="shape"/>
<feTurbulence type="fractalNoise" baseFrequency="1.6666666269302368 1.6666666269302368" stitchTiles="stitch" numOctaves="3" result="noise" seed="5901" />
<feColorMatrix in="noise" type="luminanceToAlpha" result="alphaNoise" />
<feComponentTransfer in="alphaNoise" result="coloredNoise1">
<feFuncA type="discrete" tableValues="0 0 0 0 0 0 0 0 0 0 0 0 0 0 0 0 0 0 0 1 1 1 1 1 1 1 1 1 1 1 1 0 0 0 0 0 0 0 0 0 0 0 0 0 0 0 0 0 0 0 0 0 0 0 0 0 0 0 0 0 0 0 0 0 0 0 0 0 0 0 0 0 0 0 0 0 0 0 0 0 0 0 0 0 0 0 0 0 0 0 0 0 0 0 0 0 0 0 0 0 "/>
</feComponentTransfer>
<feComposite operator="in" in2="shape" in="coloredNoise1" result="noise1Clipped" />
<feComponentTransfer in="alphaNoise" result="coloredNoise2">
<feFuncA type="discrete" tableValues="0 0 0 0 0 0 0 0 0 0 0 0 0 0 0 0 0 0 0 0 0 0 0 0 0 0 0 0 0 0 0 0 0 0 0 0 0 0 0 0 0 0 0 0 0 0 0 0 0 0 0 0 0 0 0 0 0 0 0 0 0 0 0 0 0 0 0 0 0 1 1 1 1 1 1 1 1 1 1 1 1 0 0 0 0 0 0 0 0 0 0 0 0 0 0 0 0 0 0 0 "/>
</feComponentTransfer>
<feComposite operator="in" in2="shape" in="coloredNoise2" result="noise2Clipped" />
<feFlood flood-color="rgba(0, 0, 0, 0.25)" result="color1Flood" />
<feComposite operator="in" in2="noise1Clipped" in="color1Flood" result="color1" />
<feFlood flood-color="rgba(255, 255, 255, 0.45)" result="color2Flood" />
<feComposite operator="in" in2="noise2Clipped" in="color2Flood" result="color2" />
<feMerge result="effect1_noise_130_45563">
<feMergeNode in="shape" />
<feMergeNode in="color1" />
<feMergeNode in="color2" />
</feMerge>
</filter>
<clipPath id="bgblur_0_130_45563_clip_path" transform="translate(-147.822 -49.7377)"><path d="M196.697 106.876C196.697 105.832 196.394 104.888 195.788 104.046C195.181 103.204 194.052 102.429 192.402 101.722C190.785 100.98 188.443 100.307 185.377 99.7003C182.615 99.0938 180.038 98.3358 177.646 97.4262C175.287 96.4829 173.232 95.3543 171.48 94.0404C169.762 92.7265 168.415 91.1768 167.438 89.3912C166.461 87.572 165.972 85.5 165.972 83.1754C165.972 80.8845 166.461 78.7284 167.438 76.707C168.448 74.6856 169.88 72.9001 171.733 71.3503C173.62 69.7669 175.911 68.5372 178.606 67.6613C181.335 66.7517 184.4 66.2969 187.803 66.2969C192.553 66.2969 196.63 67.0549 200.032 68.5709C203.469 70.087 206.097 72.1757 207.916 74.8372C209.381 76.9154 210.267 79.2254 210.574 81.7671C210.71 82.9021 209.768 83.8324 208.625 83.8324H198.211C197.068 83.8324 196.177 82.8912 195.904 81.7812C195.752 81.1653 195.528 80.5857 195.232 80.0423C194.659 78.8968 193.749 78.0041 192.503 77.364C191.29 76.6902 189.707 76.3533 187.753 76.3533C186.135 76.3533 184.737 76.6396 183.558 77.2124C182.379 77.7514 181.469 78.4926 180.829 79.4359C180.223 80.3455 179.92 81.3562 179.92 82.468C179.92 83.3102 180.088 84.0682 180.425 84.742C180.796 85.3821 181.385 85.9717 182.194 86.5107C183.002 87.0498 184.047 87.5551 185.327 88.0268C186.641 88.4647 188.258 88.869 190.178 89.2396C194.12 90.0481 197.64 91.1094 200.74 92.4233C203.839 93.7035 206.299 95.4554 208.118 97.6789C209.937 99.8687 210.847 102.749 210.847 106.32C210.847 108.746 210.308 110.969 209.23 112.991C208.152 115.012 206.602 116.781 204.581 118.297C202.559 119.779 200.133 120.942 197.304 121.784C194.507 122.592 191.357 122.997 187.854 122.997C182.766 122.997 178.454 122.087 174.917 120.268C171.413 118.449 168.751 116.141 166.932 113.345C165.563 111.175 164.719 108.965 164.4 106.716C164.239 105.584 165.181 104.653 166.324 104.653H176.049C177.165 104.653 178.048 105.547 178.29 106.636C178.535 107.735 178.96 108.674 179.566 109.453C180.543 110.666 181.773 111.542 183.255 112.081C184.771 112.62 186.405 112.89 188.157 112.89C190.043 112.89 191.61 112.637 192.857 112.132C194.103 111.593 195.046 110.885 195.686 110.009C196.36 109.1 196.697 108.055 196.697 106.876Z"/>
</clipPath><clipPath id="bgblur_1_130_45563_clip_path" transform="translate(-99.6713 -49.7377)"><path d="M116.23 95.2027V94.1415C116.23 90.1324 116.803 86.4433 117.949 83.0744C119.094 79.6717 120.762 76.7239 122.952 74.2308C125.141 71.7378 127.837 69.8006 131.037 68.4193C134.238 67.0044 137.91 66.2969 142.054 66.2969C146.197 66.2969 149.887 67.0044 153.121 68.4193C156.355 69.8006 159.067 71.7378 161.257 74.2308C163.48 76.7239 165.165 79.6717 166.31 83.0744C167.456 86.4433 168.028 90.1324 168.028 94.1415V95.2027C168.028 99.1781 167.456 102.867 166.31 106.27C165.165 109.639 163.48 112.587 161.257 115.113C159.067 117.606 156.372 119.544 153.171 120.925C149.971 122.306 146.299 122.997 142.155 122.997C138.011 122.997 134.322 122.306 131.088 120.925C127.887 119.544 125.175 117.606 122.952 115.113C120.762 112.587 119.094 109.639 117.949 106.27C116.803 102.867 116.23 99.1781 116.23 95.2027ZM130.784 94.1415V95.2027C130.784 97.4936 130.987 99.6329 131.391 101.621C131.795 103.608 132.435 105.36 133.311 106.876C134.221 108.359 135.4 109.521 136.849 110.363C138.297 111.205 140.066 111.626 142.155 111.626C144.176 111.626 145.911 111.205 147.36 110.363C148.808 109.521 149.971 108.359 150.847 106.876C151.723 105.36 152.363 103.608 152.767 101.621C153.205 99.6329 153.424 97.4936 153.424 95.2027V94.1415C153.424 91.9179 153.205 89.8292 152.767 87.8752C152.363 85.8875 151.706 84.1356 150.796 82.6196C149.92 81.0698 148.758 79.857 147.309 78.9811C145.861 78.1051 144.109 77.6672 142.054 77.6672C139.999 77.6672 138.247 78.1051 136.798 78.9811C135.383 79.857 134.221 81.0698 133.311 82.6196C132.435 84.1356 131.795 85.8875 131.391 87.8752C130.987 89.8292 130.784 91.9179 130.784 94.1415Z"/>
</clipPath><clipPath id="bgblur_2_130_45563_clip_path" transform="translate(-48.4994 -49.7377)"><path d="M65.0586 95.2027V94.1415C65.0586 90.1324 65.6313 86.4433 66.7768 83.0744C67.9222 79.6717 69.5899 76.7239 71.7797 74.2308C73.9695 71.7378 76.6647 69.8006 79.8652 68.4193C83.0658 67.0044 86.7379 66.2969 90.8818 66.2969C95.0256 66.2969 98.7147 67.0044 101.949 68.4193C105.183 69.8006 107.895 71.7378 110.085 74.2308C112.308 76.7239 113.993 79.6717 115.138 83.0744C116.284 86.4433 116.857 90.1324 116.857 94.1415V95.2027C116.857 99.1781 116.284 102.867 115.138 106.27C113.993 109.639 112.308 112.587 110.085 115.113C107.895 117.606 105.2 119.544 101.999 120.925C98.7989 122.306 95.1267 122.997 90.9829 122.997C86.839 122.997 83.15 122.306 79.9158 120.925C76.7152 119.544 74.0032 117.606 71.7797 115.113C69.5899 112.587 67.9222 109.639 66.7768 106.27C65.6313 102.867 65.0586 99.1781 65.0586 95.2027ZM79.6126 94.1415V95.2027C79.6126 97.4936 79.8147 99.6329 80.219 101.621C80.6233 103.608 81.2634 105.36 82.1393 106.876C83.0489 108.359 84.2281 109.521 85.6767 110.363C87.1254 111.205 88.8941 111.626 90.9829 111.626C93.0042 111.626 94.7393 111.205 96.1879 110.363C97.6366 109.521 98.7989 108.359 99.6748 106.876C100.551 105.36 101.191 103.608 101.595 101.621C102.033 99.6329 102.252 97.4936 102.252 95.2027V94.1415C102.252 91.9179 102.033 89.8292 101.595 87.8752C101.191 85.8875 100.534 84.1356 99.6243 82.6196C98.7483 81.0698 97.586 79.857 96.1374 78.9811C94.6887 78.1051 92.9369 77.6672 90.8818 77.6672C88.8267 77.6672 87.0748 78.1051 85.6262 78.9811C84.2112 79.857 83.0489 81.0698 82.1393 82.6196C81.2634 84.1356 80.6233 85.8875 80.219 87.8752C79.8147 89.8292 79.6126 91.9179 79.6126 94.1415Z"/>
</clipPath><clipPath id="bgblur_3_130_45563_clip_path" transform="translate(-21.6869 -49.7377)"><path d="M52.8001 79.2337V119.916C52.8001 121.059 51.8733 121.986 50.7302 121.986H40.316C39.1728 121.986 38.2461 121.059 38.2461 119.916V69.3775C38.2461 68.2343 39.1728 67.3076 40.316 67.3076H50.0148C51.1003 67.3076 52.0014 68.1461 52.0794 69.2287L52.8001 79.2337ZM67.8585 66.5931C68.7232 66.7396 69.2634 67.54 69.247 68.4169L69.0655 78.105C69.0422 79.3489 67.9331 80.2993 66.6922 80.211C66.6106 80.2052 66.528 80.1995 66.4444 80.1939C65.4674 80.0928 64.5746 80.0423 63.7661 80.0423C61.711 80.0423 59.9254 80.3118 58.4094 80.8508C56.9271 81.3562 55.6805 82.1142 54.6698 83.1249C53.6928 84.1356 52.9517 85.3653 52.4463 86.8139C52.1475 87.7316 51.9299 88.7305 51.7933 89.8104C51.6692 90.7917 50.708 91.4778 49.7633 91.1846C49.135 90.9896 48.7044 90.4081 48.7185 89.7503C48.7851 86.6387 49.1349 83.7565 49.768 81.1035C50.4755 78.1051 51.503 75.4942 52.8506 73.2707C54.2319 71.0471 55.9164 69.329 57.9041 68.1161C59.8918 66.9033 62.1658 66.2969 64.7262 66.2969C65.5348 66.2969 66.3602 66.3643 67.2024 66.499C67.4324 66.5266 67.6511 66.558 67.8585 66.5931Z"/>
</clipPath><clipPath id="bgblur_4_130_45563_clip_path" transform="translate(-181.015 4.067)"><path d="M229.89 53.0715C229.89 52.0271 229.587 51.0838 228.981 50.2416C228.374 49.3993 227.246 48.6244 225.595 47.917C223.978 47.1758 221.637 46.502 218.571 45.8956C215.808 45.2892 213.231 44.5311 210.839 43.6215C208.481 42.6782 206.426 41.5496 204.674 40.2357C202.956 38.9218 201.608 37.3721 200.631 35.5865C199.654 33.7673 199.165 31.6953 199.165 29.3708C199.165 27.0798 199.654 24.9237 200.631 22.9023C201.642 20.8809 203.073 19.0954 204.926 17.5456C206.813 15.9622 209.104 14.7326 211.799 13.8566C214.528 12.947 217.594 12.4922 220.996 12.4922C225.747 12.4922 229.823 13.2502 233.226 14.7662C236.662 16.2823 239.29 18.371 241.109 21.0325C242.575 23.1107 243.461 25.4207 243.767 27.9624C243.904 29.0974 242.962 30.0277 241.819 30.0277H231.405C230.261 30.0277 229.37 29.0866 229.097 27.9765C228.945 27.3606 228.721 26.781 228.425 26.2376C227.852 25.0922 226.943 24.1994 225.696 23.5593C224.483 22.8855 222.9 22.5486 220.946 22.5486C219.329 22.5486 217.931 22.8349 216.751 23.4077C215.572 23.9467 214.663 24.6879 214.023 25.6312C213.416 26.5408 213.113 27.5515 213.113 28.6633C213.113 29.5055 213.281 30.2635 213.618 30.9373C213.989 31.5774 214.579 32.167 215.387 32.706C216.196 33.2451 217.24 33.7504 218.52 34.2221C219.834 34.66 221.451 35.0643 223.372 35.4349C227.313 36.2435 230.834 37.3047 233.933 38.6186C237.033 39.8988 239.492 41.6507 241.311 43.8742C243.131 46.064 244.04 48.9445 244.04 52.5156C244.04 54.9413 243.501 57.1648 242.423 59.1862C241.345 61.2076 239.795 62.9763 237.774 64.4923C235.753 65.9747 233.327 67.137 230.497 67.9792C227.701 68.7878 224.551 69.192 221.047 69.192C215.96 69.192 211.647 68.2824 208.11 66.4632C204.606 64.6439 201.945 62.3362 200.126 59.5399C198.756 57.3699 197.912 55.1603 197.593 52.911C197.432 51.7792 198.374 50.848 199.517 50.848H209.242C210.358 50.848 211.241 51.7425 211.484 52.8318C211.728 53.9306 212.153 54.8696 212.759 55.6488C213.736 56.8616 214.966 57.7375 216.448 58.2766C217.964 58.8156 219.598 59.0851 221.35 59.0851C223.237 59.0851 224.803 58.8324 226.05 58.3271C227.296 57.7881 228.24 57.0806 228.88 56.2046C229.554 55.295 229.89 54.2506 229.89 53.0715Z"/>
</clipPath><clipPath id="bgblur_5_130_45563_clip_path" transform="translate(-138.49 4.067)"><path d="M186.886 55.8509V31.4932C186.886 29.7413 186.599 28.2421 186.027 26.9956C185.454 25.7154 184.561 24.7216 183.348 24.0141C182.169 23.3066 180.636 22.9529 178.75 22.9529C177.132 22.9529 175.734 23.2392 174.555 23.8119C173.376 24.351 172.466 25.1427 171.826 26.1871C171.526 26.6606 171.297 27.1749 171.137 27.7298C170.822 28.8285 169.939 29.775 168.796 29.775H158.382C157.239 29.775 156.296 28.8435 156.458 27.712C156.685 26.1353 157.175 24.6163 157.929 23.155C159.007 21.0662 160.574 19.2301 162.629 17.6467C164.684 16.0296 167.127 14.7662 169.957 13.8566C172.82 12.947 176.021 12.4922 179.558 12.4922C183.803 12.4922 187.576 13.1997 190.878 14.6146C194.179 16.0296 196.774 18.1521 198.66 20.982C200.581 23.8119 201.541 27.3494 201.541 31.5943V54.9918C201.541 57.9902 201.726 60.4495 202.097 62.3699C202.454 64.1915 202.969 65.7932 203.641 67.1751C203.688 67.2722 203.714 67.3784 203.714 67.4863C203.714 67.8702 203.402 68.1813 203.019 68.1813H190.314C189.516 68.1813 188.779 67.7263 188.501 66.9787C188.037 65.7327 187.667 64.2807 187.391 62.6225C187.054 60.3653 186.886 58.1081 186.886 55.8509ZM186.736 34.879C187.879 34.879 188.806 35.8058 188.806 36.9489V46.6435V45.1861C188.806 44.0429 187.879 43.1162 186.736 43.1162H180.771C178.851 43.1162 177.183 43.3352 175.768 43.7731C174.353 44.2111 173.191 44.8343 172.281 45.6429C171.372 46.4178 170.698 47.3274 170.26 48.3718C169.855 49.4162 169.653 50.5616 169.653 51.8081C169.653 53.0546 169.94 54.1833 170.512 55.1939C171.085 56.1709 171.911 56.9458 172.989 57.5185C174.067 58.0576 175.33 58.3271 176.779 58.3271C178.969 58.3271 180.872 57.8891 182.489 57.0132C184.106 56.1373 185.353 55.0592 186.229 53.779C186.915 52.8136 189.112 52.4971 189.738 53.5022L190.979 55.4953C191.297 56.0053 191.361 56.6376 191.116 57.1865C190.624 58.2933 190.005 59.4315 189.261 60.6011C188.351 62.0835 187.189 63.4816 185.774 64.7955C184.359 66.0757 182.658 67.137 180.67 67.9792C178.682 68.7878 176.324 69.192 173.595 69.192C170.125 69.192 166.975 68.5014 164.145 67.1201C161.349 65.7051 159.125 63.768 157.474 61.3086C155.857 58.8156 155.049 55.9857 155.049 52.8188C155.049 49.9552 155.588 47.4116 156.666 45.1881C157.744 42.9646 159.327 41.0948 161.416 39.5787C163.539 38.029 166.183 36.8667 169.35 36.0919C172.517 35.2833 176.189 34.879 180.367 34.879H186.736Z"/>
</clipPath><clipPath id="bgblur_6_130_45563_clip_path" transform="translate(-60.9506 4.067)"><path d="M92.1143 24.8226V66.1114C92.1143 67.2546 91.1875 68.1813 90.0444 68.1813H79.5797C78.4365 68.1813 77.5098 67.2546 77.5098 66.1114V15.5728C77.5098 14.4296 78.4365 13.5029 79.5797 13.5029H89.2944C90.3733 13.5029 91.2712 14.3316 91.3577 15.407L92.1143 24.8226ZM90.1641 36.902C90.0838 38.0155 89.1879 38.9218 88.0715 38.9218C86.9551 38.9218 86.0448 38.0162 86.0941 36.9009C86.2281 33.8667 86.6682 31.0366 87.4146 28.4106C88.3579 25.1764 89.7223 22.3801 91.5079 20.0218C93.3271 17.6299 95.5675 15.7769 98.229 14.463C100.89 13.1491 103.973 12.4922 107.477 12.4922C109.902 12.4922 112.126 12.8628 114.147 13.6039C116.169 14.3114 117.904 15.44 119.352 16.9898C120.835 18.5058 121.98 20.4935 122.789 22.9529C123.597 25.3785 124.002 28.2927 124.002 31.6953V66.1114C124.002 67.2546 123.075 68.1813 121.932 68.1813H111.518C110.374 68.1813 109.448 67.2546 109.448 66.1114V33.3125C109.448 30.8194 109.111 28.8991 108.437 27.5515C107.763 26.2039 106.803 25.2606 105.556 24.7216C104.344 24.1825 102.878 23.913 101.16 23.913C99.2733 23.913 97.6225 24.3004 96.2076 25.0753C94.8263 25.8502 93.6808 26.9282 92.7712 28.3095C91.8616 29.6571 91.1878 31.2405 90.7498 33.0598C90.4561 34.2799 90.2609 35.5607 90.1641 36.902ZM122.709 35.4309C122.625 36.4704 121.861 37.3521 120.826 37.4827L119.761 37.6171C118.525 37.7732 117.427 36.8087 117.497 35.5647C117.649 32.8756 118.065 30.3393 118.746 27.9558C119.656 24.89 120.986 22.1948 122.738 19.8702C124.524 17.5456 126.73 15.7432 129.358 14.463C131.986 13.1491 135.018 12.4922 138.455 12.4922C141.082 12.4922 143.474 12.8796 145.63 13.6545C147.787 14.3957 149.623 15.5916 151.139 17.2424C152.688 18.8596 153.868 20.982 154.676 23.6098C155.518 26.2376 155.939 29.455 155.939 33.2619V66.1114C155.939 67.2546 155.013 68.1813 153.87 68.1813H143.405C142.262 68.1813 141.335 67.2546 141.335 66.1114V33.2619C141.335 30.7352 140.998 28.8149 140.324 27.501C139.684 26.1534 138.741 25.2269 137.494 24.7216C136.282 24.1825 134.833 23.913 133.148 23.913C131.397 23.913 129.864 24.2668 128.55 24.9742C127.236 25.648 126.141 26.5913 125.265 27.8042C124.389 29.017 123.732 30.432 123.294 32.0491C123.001 33.1085 122.806 34.2358 122.709 35.4309Z"/>
</clipPath><clipPath id="bgblur_7_130_45563_clip_path" transform="translate(-10.0873 4.067)"><path d="M26.6465 41.398V40.3368C26.6465 36.3277 27.2192 32.6387 28.3647 29.2697C29.5101 25.867 31.1778 22.9192 33.3676 20.4261C35.5574 17.9331 38.2526 15.9959 41.4531 14.6146C44.6537 13.1997 48.3258 12.4922 52.4697 12.4922C56.6135 12.4922 60.3025 13.1997 63.5368 14.6146C66.771 15.9959 69.483 17.9331 71.6728 20.4261C73.8964 22.9192 75.5808 25.867 76.7263 29.2697C77.8717 32.6387 78.4445 36.3277 78.4445 40.3368V41.398C78.4445 45.3734 77.8717 49.0624 76.7263 52.4651C75.5808 55.834 73.8964 58.7819 71.6728 61.3086C69.483 63.8017 66.7878 65.7388 63.5873 67.1201C60.3868 68.5014 56.7146 69.192 52.5707 69.192C48.4269 69.192 44.7379 68.5014 41.5037 67.1201C38.3031 65.7388 35.5911 63.8017 33.3676 61.3086C31.1778 58.7819 29.5101 55.834 28.3647 52.4651C27.2192 49.0624 26.6465 45.3734 26.6465 41.398ZM41.2005 40.3368V41.398C41.2005 43.6889 41.4026 45.8282 41.8069 47.8159C42.2111 49.8036 42.8513 51.5555 43.7272 53.0715C44.6368 54.5538 45.816 55.7161 47.2646 56.5584C48.7133 57.4006 50.482 57.8217 52.5707 57.8217C54.5921 57.8217 56.3272 57.4006 57.7758 56.5584C59.2245 55.7161 60.3868 54.5538 61.2627 53.0715C62.1386 51.5555 62.7787 49.8036 63.183 47.8159C63.621 45.8282 63.84 43.6889 63.84 41.398V40.3368C63.84 38.1132 63.621 36.0245 63.183 34.0705C62.7787 32.0828 62.1218 30.3309 61.2122 28.8149C60.3362 27.2651 59.1739 26.0523 57.7253 25.1764C56.2766 24.3004 54.5248 23.8625 52.4697 23.8625C50.4146 23.8625 48.6627 24.3004 47.2141 25.1764C45.7991 26.0523 44.6368 27.2651 43.7272 28.8149C42.8513 30.3309 42.2111 32.0828 41.8069 34.0705C41.4026 36.0245 41.2005 38.1132 41.2005 40.3368Z"/>
</clipPath><clipPath id="bgblur_8_130_45563_clip_path" transform="translate(16.5592 16.5592)"><path d="M29.7669 13.4927C30.9101 13.4927 31.8368 14.4195 31.8368 15.5626V21.7319C31.8368 22.8751 30.9101 23.8018 29.7669 23.8018H2.0699C0.926726 23.8018 0 22.8751 0 21.7319V15.5626C0 14.4195 0.926725 13.4927 2.0699 13.4927H29.7669ZM7.8834 2.0699C7.8834 0.926722 8.81013 0 9.9533 0H20.3675C21.5106 0 22.4374 0.926725 22.4374 2.0699V51.6969C22.4374 53.2803 22.6395 54.4932 23.0438 55.3354C23.4818 56.1777 24.1219 56.7672 24.9641 57.1041C25.8063 57.4073 26.8676 57.5589 28.1478 57.5589C29.0574 57.5589 29.866 57.5252 30.5734 57.4579C31.5463 57.3252 32.4475 58.0673 32.4522 59.0491L32.4866 66.3558C32.4909 67.2566 31.9139 68.0644 31.0416 68.2891C30.2173 68.5015 29.3538 68.6812 28.451 68.8282C27.0023 69.064 25.4021 69.1819 23.6502 69.1819C20.4497 69.1819 17.6534 68.6597 15.2615 67.6153C12.9032 66.5373 11.0839 64.8191 9.80372 62.4608C8.52351 60.1025 7.8834 57.0031 7.8834 53.1624V2.0699Z"/>
</clipPath></defs>
</svg>
